<?xml version="1.0" encoding="UTF-8" standalone="no"?>
<!-- Created with Inkscape (http://www.inkscape.org/) -->

<svg
   width="32"
   height="32"
   viewBox="0 0 32 32"
   version="1.1"
   id="SVGRoot"
   sodipodi:docname="adonis.svg"
   inkscape:version="1.2.1 (9c6d41e410, 2022-07-14)"
   xmlns:inkscape="http://www.inkscape.org/namespaces/inkscape"
   xmlns:sodipodi="http://sodipodi.sourceforge.net/DTD/sodipodi-0.dtd"
   xmlns="http://www.w3.org/2000/svg"
   xmlns:svg="http://www.w3.org/2000/svg">
  <defs
     id="defs8354" />
  <sodipodi:namedview
     id="namedview32486"
     pagecolor="#181825"
     bordercolor="#000000"
     borderopacity="0.24705882"
     inkscape:showpageshadow="2"
     inkscape:pageopacity="0"
     inkscape:pagecheckerboard="0"
     inkscape:deskcolor="#313244"
     inkscape:document-units="px"
     showgrid="true"
     inkscape:zoom="19.487863"
     inkscape:cx="8.0306394"
     inkscape:cy="13.085067"
     inkscape:window-width="1920"
     inkscape:window-height="1017"
     inkscape:window-x="1912"
     inkscape:window-y="-8"
     inkscape:window-maximized="1"
     inkscape:current-layer="SVGRoot"
     showborder="false"
     showguides="false">
    <inkscape:grid
       type="xygrid"
       id="grid32609"
       originx="0"
       originy="0" />
  </sodipodi:namedview>
  <path
     d="m 16,0.92066046 c 12.000039,0 15.000048,3.00000964 15.000048,15.00004754 0,12.000039 -3.000009,15.000048 -15.000048,15.000048 -12.0000382,0 -15.00004788,-3.000009 -15.00004788,-15.000048 C 0.99995212,3.9206701 3.9999618,0.92066046 16,0.92066046 Z"
     id="path2759"
     style="fill:none;stroke:#5a46ff;stroke-width:2;stroke-dasharray:none;stroke-opacity:1" />
  <path
     d="M 10.771649,24.124067 C 12.666656,23.420731 13.499991,22.587395 16,22.587395 c 2.500008,0 3.333345,0.833336 5.230016,1.536672 1.188338,0.440002 2.526675,-0.169999 2.963343,-1.28667 0.21,-0.533335 0.183334,-1.12167 -0.07333,-1.638339 L 17.940007,8.7423521 C 17.445004,7.7456821 16.176668,7.3106807 15.106664,7.7706824 A 2.0666733,2.0666733 0 0 0 14.06166,8.7423521 L 7.8799742,21.199058 c -0.5350018,1.080003 -0.028332,2.358342 1.1316702,2.856676 0.553335,0.238334 1.1916696,0.278335 1.7600046,0.06668 z"
     id="path2761"
     style="fill:none;stroke:#5a46ff;stroke-width:2;stroke-dasharray:none;stroke-opacity:1;stroke-linejoin:round;stroke-linecap:round" />
</svg>
