<?xml version="1.0" encoding="UTF-8" standalone="no"?>
<!-- Created with Inkscape (http://www.inkscape.org/) -->

<svg
   width="32"
   height="32"
   viewBox="0 0 31.999998 31.999998"
   version="1.1"
   id="SVGRoot"
   sodipodi:docname="alex.svg"
   inkscape:version="1.2.1 (9c6d41e410, 2022-07-14)"
   xmlns:inkscape="http://www.inkscape.org/namespaces/inkscape"
   xmlns:sodipodi="http://sodipodi.sourceforge.net/DTD/sodipodi-0.dtd"
   xmlns="http://www.w3.org/2000/svg"
   xmlns:svg="http://www.w3.org/2000/svg">
  <defs
     id="defs8354" />
  <sodipodi:namedview
     id="namedview32486"
     pagecolor="#181825"
     bordercolor="#000000"
     borderopacity="0.24705882"
     inkscape:showpageshadow="2"
     inkscape:pageopacity="0"
     inkscape:pagecheckerboard="0"
     inkscape:deskcolor="#313244"
     inkscape:document-units="px"
     showgrid="true"
     inkscape:zoom="8"
     inkscape:cx="-5.5"
     inkscape:cy="1.375"
     inkscape:window-width="1920"
     inkscape:window-height="1017"
     inkscape:window-x="1912"
     inkscape:window-y="-8"
     inkscape:window-maximized="1"
     inkscape:current-layer="SVGRoot"
     showborder="false"
     showguides="false">
    <inkscape:grid
       type="xygrid"
       id="grid32609"
       originx="0"
       originy="0" />
  </sodipodi:namedview>
  <rect
     style="fill:none;stroke:#6f42c1;stroke-width:2;stroke-linecap:round;stroke-linejoin:round;stroke-dasharray:none;stroke-opacity:1;paint-order:fill markers stroke"
     id="rect1675"
     width="29.999771"
     height="29.999767"
     x="1.0001144"
     y="1.0001163"
     rx="5.1634188"
     ry="5.1115756" />
  <path
     style="fill:none;stroke:#6f42c1;stroke-width:2;stroke-linecap:round;stroke-linejoin:round;stroke-dasharray:none;stroke-opacity:1;paint-order:fill markers stroke"
     d="M 10.784861,23 H 21.12117"
     id="path1731" />
  <path
     style="fill:none;stroke:#6f42c1;stroke-width:2;stroke-linecap:round;stroke-linejoin:round;stroke-dasharray:none;stroke-opacity:1;paint-order:fill markers stroke"
     d="M 10.878828,27 H 21.215139"
     id="path1731-6" />
  <path
     style="fill:none;fill-opacity:1;stroke:#6f42c1;stroke-width:2.19488;stroke-linecap:round;stroke-linejoin:round;stroke-dasharray:none;stroke-opacity:1;paint-order:fill markers stroke"
     d="m 22.074725,18.491043 c 0,0 -0.578637,0.08047 -0.870047,0.08854 -0.137693,0.0039 -0.276125,-0.0017 -0.412795,-0.01896 -0.124399,-0.01558 -0.252124,-0.02902 -0.368338,-0.07589 -0.120844,-0.04874 -0.245169,-0.11032 -0.330235,-0.208702 -0.07854,-0.09083 -0.117635,-0.212389 -0.146068,-0.328861 -0.04959,-0.203166 -0.03173,-0.417116 -0.0381,-0.626103 -0.0356,-1.171564 0,-2.3442 0,-3.516299 0,-1.172096 -0.01122,-2.34425 0,-3.516294 0.0042,-0.4422631 0.02778,-0.8843298 0.02541,-1.3266069 -0.0011,-0.1997399 0.0046,-0.4004846 -0.0179,-0.5989608 C 19.892391,8.1484881 19.850098,7.9353875 19.79092,7.7278743 19.728017,7.5073006 19.655467,7.2867748 19.548427,7.0839155 19.41934,6.8392735 19.261408,6.6061653 19.072422,6.4041814 18.935927,6.2582982 18.768614,6.1437533 18.605401,6.0285386 18.387102,5.8744377 18.166023,5.7188847 17.922825,5.608176 17.685926,5.5003346 17.431718,5.4309934 17.177383,5.3756354 16.876614,5.3101708 16.568348,5.2810187 16.2613,5.2593652 c -0.408415,-0.028802 -0.818953,-0.031462 -1.228158,-0.017888 -0.258164,0.00856 -0.517425,0.021169 -0.772386,0.062608 -0.270843,0.04402 -0.536364,0.1183859 -0.799329,0.1967651 -0.258489,0.077045 -0.518755,0.1547336 -0.763402,0.2683164 -0.192125,0.089199 -0.375621,0.1986769 -0.547857,0.3219796 -0.1671,0.1196264 -0.322022,0.2568463 -0.467024,0.4024746 -0.185364,0.1861655 -0.359832,0.3850322 -0.511928,0.599239 -0.123874,0.174461 -0.224515,0.3647371 -0.323326,0.5545207 -0.0785,0.1507624 -0.134654,0.2688327 -0.213581,0.4630329"
     id="path9744"
     sodipodi:nodetypes="caaaaaaaaaaaaaaaaaaaaaaaaac" />
  <path
     style="fill:none;fill-opacity:1;stroke:#6f42c1;stroke-width:2.19488;stroke-linecap:round;stroke-linejoin:round;stroke-dasharray:none;stroke-opacity:1;paint-order:fill markers stroke"
     d="m 19.674162,10.744439 c 0,0 -0.717354,0.345249 -1.095711,0.465082 -0.431989,0.136818 -0.879944,0.2261 -1.329222,0.286201 -1.206404,0.161391 -2.439219,0.04106 -3.646378,0.196766 -0.381969,0.04928 -0.762197,0.124074 -1.131636,0.232543 -0.301826,0.0886 -0.599129,0.198897 -0.880158,0.339866 -0.240337,0.120555 -0.481402,0.251315 -0.682574,0.429306 -0.213212,0.188645 -0.395508,0.416316 -0.538873,0.661846 -0.132463,0.226859 -0.222903,0.478958 -0.287401,0.733397 -0.09597,0.378615 -0.1269557,0.772569 -0.1437007,1.162707 -0.01382,0.321906 -0.02679,0.649843 0.03591,0.965937 0.04697,0.236889 0.1428107,0.463873 0.2514757,0.679734 0.128008,0.254298 0.284958,0.496318 0.467023,0.715509 0.132254,0.159225 0.283087,0.305292 0.44906,0.429306 0.182371,0.136266 0.385213,0.245889 0.592763,0.339869 0.184433,0.08352 0.381722,0.135617 0.574798,0.196763 0.243756,0.07721 0.485076,0.167616 0.73646,0.214654 0.27171,0.05086 0.550509,0.05199 0.826273,0.07154 0.215338,0.01528 0.430874,0.04255 0.646649,0.03577 0.253125,-0.0079 0.505032,-0.04558 0.754424,-0.08943 0.205948,-0.03622 0.409774,-0.08541 0.610721,-0.143101 0.212868,-0.06111 0.424842,-0.128265 0.628688,-0.214654 0.229152,-0.09712 0.449031,-0.215705 0.66461,-0.339867 0.209899,-0.120889 0.415138,-0.250809 0.610724,-0.393531 0.144085,-0.105131 0.274703,-0.227454 0.413138,-0.339866 0.244221,-0.19832 0.513525,-0.368503 0.736459,-0.590296 0.337381,-0.335655 0.898123,-1.109039 0.898123,-1.109039"
     id="path9917"
     sodipodi:nodetypes="caaaaaaaaaaaaaaaaaaaaaaaaac" />
</svg>
