<?xml version="1.0" encoding="UTF-8" standalone="no"?>
<!-- Created with Inkscape (http://www.inkscape.org/) -->

<svg
   width="32"
   height="32"
   viewBox="0 0 32 32"
   version="1.1"
   id="SVGRoot"
   sodipodi:docname="apl.svg"
   inkscape:version="1.2.1 (9c6d41e410, 2022-07-14)"
   xmlns:inkscape="http://www.inkscape.org/namespaces/inkscape"
   xmlns:sodipodi="http://sodipodi.sourceforge.net/DTD/sodipodi-0.dtd"
   xmlns="http://www.w3.org/2000/svg"
   xmlns:svg="http://www.w3.org/2000/svg">
  <defs
     id="defs8354" />
  <sodipodi:namedview
     id="namedview32486"
     pagecolor="#181825"
     bordercolor="#000000"
     borderopacity="0.24705882"
     inkscape:showpageshadow="2"
     inkscape:pageopacity="0"
     inkscape:pagecheckerboard="0"
     inkscape:deskcolor="#313244"
     inkscape:document-units="px"
     showgrid="true"
     inkscape:zoom="19.487863"
     inkscape:cx="19.448002"
     inkscape:cy="17.241501"
     inkscape:window-width="1920"
     inkscape:window-height="1017"
     inkscape:window-x="1912"
     inkscape:window-y="-8"
     inkscape:window-maximized="1"
     inkscape:current-layer="SVGRoot"
     showborder="false"
     showguides="false"
     shape-rendering="auto">
    <inkscape:grid
       type="xygrid"
       id="grid32609"
       originx="0"
       originy="0" />
  </sodipodi:namedview>
  <path
     d="M 16.22582,30.629341 16,30.583255 l -0.22582,0.04609 c -3.651524,0.72969 -7.0971987,0.3226 -9.6165506,-1.68981 -2.5024538,-2.004728 -4.3673887,-5.825233 -4.3673887,-12.542992 0,-6.8713793 1.5484797,-9.6626369 3.5870041,-10.6826672 1.0676522,-0.533058 2.447151,-0.6882132 4.2014802,-0.4869722 1.752793,0.2027771 3.775955,0.7496608 6.057198,1.5100749 l 0.399409,0.1321124 0.391729,-0.1566914 c 3.812824,-1.5239007 7.240064,-2.1091892 9.647274,-0.9846979 2.2582,1.0522902 4.135424,3.8988507 4.135424,10.6688414 0,6.719295 -1.863398,10.538264 -4.367388,12.541456 -2.519352,2.015482 -5.965027,2.421036 -9.616551,1.68981 z"
     id="path5450"
     style="fill:none;stroke:#00a33a;stroke-width:2;stroke-linecap:round;stroke-linejoin:round;stroke-dasharray:none;stroke-opacity:1" />
  <path
     stroke-linecap="round"
     stroke-linejoin="round"
     d="M 16,6.4113022 C 16,2.5708267 14.46381,1.0346365 11.391429,1.0346365"
     id="path5452"
     style="fill:none;stroke:#00a33a;stroke-width:2;stroke-linecap:round;stroke-linejoin:round;stroke-dasharray:none;stroke-opacity:1" />
</svg>
