<?xml version="1.0" encoding="UTF-8" standalone="no"?>
<!-- Created with Inkscape (http://www.inkscape.org/) -->

<svg
   width="32"
   height="32"
   viewBox="0 0 32 32"
   version="1.1"
   id="SVGRoot"
   sodipodi:docname="apple.svg"
   inkscape:version="1.2.1 (9c6d41e410, 2022-07-14)"
   xmlns:inkscape="http://www.inkscape.org/namespaces/inkscape"
   xmlns:sodipodi="http://sodipodi.sourceforge.net/DTD/sodipodi-0.dtd"
   xmlns="http://www.w3.org/2000/svg"
   xmlns:svg="http://www.w3.org/2000/svg">
  <defs
     id="defs8354" />
  <sodipodi:namedview
     id="namedview32486"
     pagecolor="#181825"
     bordercolor="#000000"
     borderopacity="0.24705882"
     inkscape:showpageshadow="2"
     inkscape:pageopacity="0"
     inkscape:pagecheckerboard="0"
     inkscape:deskcolor="#313244"
     inkscape:document-units="px"
     showgrid="true"
     inkscape:zoom="5.1026952"
     inkscape:cx="52.423276"
     inkscape:cy="71.138875"
     inkscape:window-width="1920"
     inkscape:window-height="1017"
     inkscape:window-x="1912"
     inkscape:window-y="-8"
     inkscape:window-maximized="1"
     inkscape:current-layer="SVGRoot"
     showborder="false"
     showguides="false">
    <inkscape:grid
       type="xygrid"
       id="grid32609"
       originx="0"
       originy="0" />
  </sodipodi:namedview>
  <path
     fill="none"
     stroke="currentColor"
     d="m 17.015568,6.2964463 c -0.397649,1.8e-6 -0.720334,-0.3217414 -0.721493,-0.7193892 1e-6,-3.2373315 1.289254,-4.5092625 4.630517,-4.5092631 0.399662,-10e-8 0.71939,0.3239349 0.71939,0.7214925 0,3.2696713 -1.843915,4.5038966 -4.628414,4.5050566 z M 27.244793,22.219982 c 0.277661,0.208245 0.368112,0.588972 0.210349,0.898183 -2.534693,5.077798 -4.56034,7.606177 -6.409297,7.606177 -0.860322,0 -1.70592,-0.277661 -2.530483,-0.820357 -1.201959,-0.791602 -2.751019,-0.825116 -3.98609,-0.08624 -0.997048,0.597386 -1.949924,0.906598 -2.852315,0.906598 -2.7219,0 -7.208618,-7.984098 -7.208618,-12.5823 0,-4.905309 2.572553,-8.6494992 6.487124,-8.6494992 1.840543,0 3.430772,0.2734518 4.766481,0.8203562 0.565835,0.23559 1.205293,0.218762 1.758507,-0.04627 1.083291,-0.5216611 2.511552,-0.7740786 4.286888,-0.7740786 2.166583,0 4.051297,1.0790846 5.620489,3.1720436 0.239072,0.318373 0.17506,0.770228 -0.143035,1.00967 -1.752194,1.31257 -2.59569,2.789211 -2.59569,4.467786 0,1.680679 0.843496,2.763268 2.59569,4.077939 z"
     id="path6247"
     style="stroke:#ffffff;stroke-width:2;stroke-linecap:round;stroke-linejoin:round;stroke-dasharray:none;stroke-opacity:1"
     sodipodi:nodetypes="ccscccscsccsssccsccsss" />
</svg>
