<?xml version="1.0" encoding="UTF-8" standalone="no"?>
<!-- Created with Inkscape (http://www.inkscape.org/) -->

<svg
   width="32"
   height="32"
   viewBox="0 0 32 32"
   version="1.1"
   id="SVGRoot"
   sodipodi:docname="astro.svg"
   inkscape:version="1.2.1 (9c6d41e, 2022-07-14)"
   xmlns:inkscape="http://www.inkscape.org/namespaces/inkscape"
   xmlns:sodipodi="http://sodipodi.sourceforge.net/DTD/sodipodi-0.dtd"
   xmlns="http://www.w3.org/2000/svg"
   xmlns:svg="http://www.w3.org/2000/svg">
  <defs
     id="defs8354" />
  <sodipodi:namedview
     id="namedview32486"
     pagecolor="#181825"
     bordercolor="#000000"
     borderopacity="0.24705882"
     inkscape:showpageshadow="2"
     inkscape:pageopacity="0"
     inkscape:pagecheckerboard="0"
     inkscape:deskcolor="#313244"
     inkscape:document-units="px"
     showgrid="true"
     inkscape:zoom="3.6081504"
     inkscape:cx="57.092964"
     inkscape:cy="72.05908"
     inkscape:window-width="1309"
     inkscape:window-height="430"
     inkscape:window-x="0"
     inkscape:window-y="38"
     inkscape:window-maximized="0"
     inkscape:current-layer="SVGRoot"
     showborder="false"
     showguides="false">
    <inkscape:grid
       type="xygrid"
       id="grid32609"
       originx="0"
       originy="0" />
  </sodipodi:namedview>
  <path
     fill="currentColor"
     d="m 20.298154,1.7647031 c 0.237239,0.2953391 0.35828,0.6923526 0.600361,1.4875899 l 5.287057,17.365706 c -1.985873,-1.03051 -4.11729,-1.752138 -6.320744,-2.14 L 16.423641,6.8484114 C 16.29645,6.4199326 15.688999,6.4216651 15.564253,6.8508684 L 12.16301,18.474368 C 9.9497713,18.860543 7.8087463,19.583471 5.8144273,20.617999 L 11.126902,3.2498722 C 11.368983,2.4558454 11.490024,2.0588321 11.728474,1.7647031 11.937948,1.5049898 12.210486,1.3032944 12.52008,1.1788663 12.871098,1.0384591 13.285057,1.0384591 14.115396,1.0384591 h 3.794626 c 0.830338,0 1.246719,0 1.597737,0.1416176 0.308554,0.1244918 0.5802,0.3257265 0.789185,0.5846264 z"
     id="path2"
     style="fill:none;fill-opacity:1;stroke:#ffffff;stroke-width:2;stroke-linecap:round;stroke-linejoin:round;stroke-dasharray:none;stroke-opacity:1"
     sodipodi:nodetypes="cccccccccccssccc" />
  <path
     d="m 20.87347,22.320103 c -0.871534,0.745645 -2.610969,1.252829 -4.614282,1.252829 -2.459662,0 -4.52108,-0.765013 -5.068207,-1.795117 -0.194885,0.590706 -0.239672,1.266144 -0.239672,1.697069 0,0 -0.12831,2.118309 1.344823,3.592653 0,-0.765013 0.620969,-1.38598 1.385979,-1.38598 1.310931,0 1.30972,1.143887 1.308509,2.072312 v 0.08352 c 0,1.408978 0.860641,2.615809 2.085628,3.125415 -0.188578,-0.388107 -0.286272,-0.814071 -0.285669,-1.245567 0,-1.343613 0.789223,-1.843534 1.706752,-2.424556 0.7287,-0.463608 1.539708,-0.976844 2.097733,-2.009368 0.3009,-0.555237 0.458188,-1.176902 0.457555,-1.808431 1.67e-4,-0.391861 -0.06026,-0.781391 -0.179149,-1.154781 z"
     style="display:inline;fill:none;fill-opacity:1;stroke:#cc75f4;stroke-width:2;stroke-linecap:round;stroke-linejoin:round;stroke-dasharray:none;stroke-opacity:1"
     id="path4037" />
</svg>
