<?xml version="1.0" encoding="UTF-8" standalone="no"?>
<!-- Created with Inkscape (http://www.inkscape.org/) -->

<svg
   width="32"
   height="32"
   viewBox="0 0 32 32"
   version="1.1"
   id="SVGRoot"
   sodipodi:docname="astro_config.svg"
   inkscape:version="1.2.1 (9c6d41e, 2022-07-14)"
   xmlns:inkscape="http://www.inkscape.org/namespaces/inkscape"
   xmlns:sodipodi="http://sodipodi.sourceforge.net/DTD/sodipodi-0.dtd"
   xmlns="http://www.w3.org/2000/svg"
   xmlns:svg="http://www.w3.org/2000/svg">
  <defs
     id="defs8354" />
  <sodipodi:namedview
     id="namedview32486"
     pagecolor="#181825"
     bordercolor="#000000"
     borderopacity="0.24705882"
     inkscape:showpageshadow="2"
     inkscape:pageopacity="0"
     inkscape:pagecheckerboard="0"
     inkscape:deskcolor="#313244"
     inkscape:document-units="px"
     showgrid="true"
     inkscape:zoom="9.3881465"
     inkscape:cx="57.359565"
     inkscape:cy="56.507427"
     inkscape:window-width="1414"
     inkscape:window-height="685"
     inkscape:window-x="0"
     inkscape:window-y="38"
     inkscape:window-maximized="0"
     inkscape:current-layer="SVGRoot"
     showborder="false"
     showguides="false">
    <inkscape:grid
       type="xygrid"
       id="grid32609"
       originx="0"
       originy="0" />
  </sodipodi:namedview>
  <path
     fill="currentColor"
     d="M 16.831118,16.297182 16.616044,15.570334 15.755749,12.662944 14.03516,6.8481643 C 13.907968,6.4196865 13.300519,6.421419 13.175774,6.8506212 L 9.7745383,18.474093 c -2.213234,0.386174 -4.354253,1.1091 -6.348568,2.143626 L 8.7384333,3.2496334 c 0.24208,-0.7940249 0.363121,-1.1910372 0.60157,-1.4851655 0.209473,-0.2597128 0.482011,-0.4614076 0.7916037,-0.5858355 0.351018,-0.1404068 0.764975,-0.1404068 1.595313,-0.1404068 h 3.794617 c 0.830336,0 1.246715,0 1.597733,0.1416172 0.308553,0.1244915 0.580198,0.3257258 0.789183,0.5846251 h 0.0012 c 0.237239,0.2953384 0.35828,0.692351 0.60036,1.4875863 l 2.643522,8.6828328 0.66088,2.170708 0.165221,0.542677"
     id="path2"
     style="fill:none;fill-opacity:1;stroke:#ffffff;stroke-width:2;stroke-linecap:round;stroke-linejoin:round;stroke-dasharray:none;stroke-opacity:1"
     sodipodi:nodetypes="ccccccccccssccccccc" />
  <path
     d="m 12.118073,23.437017 c -0.547695,-0.08782 -1.053062,-0.215632 -1.498663,-0.37564 -0.8912007,-0.320016 -1.5433357,-0.768794 -1.8168987,-1.283844 -0.194884,0.590704 -0.239671,1.266141 -0.239671,1.697065 0,0 -0.128309,2.118304 1.34482,3.592644 0,-0.765011 0.6209667,-1.385977 1.3859757,-1.385977 1.310927,0 1.309717,1.143885 1.308506,2.072308 v 0.08352 c 0,1.408975 0.860639,2.615803 2.085623,3.125408"
     style="display:inline;fill:none;fill-opacity:1;stroke:#cc75f4;stroke-width:2;stroke-linecap:round;stroke-linejoin:round;stroke-dasharray:none;stroke-opacity:1"
     id="path4037"
     sodipodi:nodetypes="cscccscsc" />
  <path
     id="path3680"
     style="fill:none;stroke:#808080;stroke-width:2;stroke-linecap:round;stroke-linejoin:round;stroke-dasharray:none;paint-order:fill markers stroke"
     d="m 24.390112,24.268701 a 2.5096972,2.5096972 0 0 1 -2.509697,2.509697 2.5096972,2.5096972 0 0 1 -2.509697,-2.509697 2.5096972,2.5096972 0 0 1 2.509697,-2.509697 2.5096972,2.5096972 0 0 1 2.509697,2.509697 z m -2.509691,-6.692524 c -0.892774,0 -1.209707,1.363843 -2.091419,1.673131 -0.881708,0.309286 -2.237849,-0.690131 -2.927974,0 -0.690139,0.690132 0.309282,2.04627 0,2.927979 -0.309292,0.881711 -1.673135,1.198642 -1.673135,2.091415 0,0.892772 1.363843,1.209705 1.673135,2.091415 0.309282,0.881709 -0.689855,2.237567 0,2.927979 0.689848,0.690412 2.046518,-0.306874 2.927974,0.0024 0.881463,0.309258 1.198891,1.671059 2.091419,1.670749 0.892519,-2.83e-4 1.209701,-1.363844 2.091409,-1.673132 0.881712,-0.309287 2.237569,0.689851 2.927982,0 0.690409,-0.68985 -0.306876,-2.046523 0.0022,-2.927979 0.30926,-0.881458 1.671058,-1.19889 1.670746,-2.091415 -2.83e-4,-0.892524 -1.363839,-1.209703 -1.673128,-2.091414 -0.309291,-0.88171 0.690126,-2.237848 0,-2.927979 -0.690132,-0.690131 -2.04627,0.309286 -2.927981,0 -0.881711,-0.309287 -1.198645,-1.673131 -2.091416,-1.673131 z" />
</svg>
