<?xml version="1.0" encoding="UTF-8" standalone="no"?>
<!-- Created with Inkscape (http://www.inkscape.org/) -->

<svg
   width="32"
   height="32"
   viewBox="0 0 32 32"
   version="1.1"
   id="SVGRoot"
   sodipodi:docname="babel.svg"
   inkscape:version="1.2.1 (9c6d41e410, 2022-07-14)"
   xmlns:inkscape="http://www.inkscape.org/namespaces/inkscape"
   xmlns:sodipodi="http://sodipodi.sourceforge.net/DTD/sodipodi-0.dtd"
   xmlns="http://www.w3.org/2000/svg"
   xmlns:svg="http://www.w3.org/2000/svg">
  <defs
     id="defs8354" />
  <sodipodi:namedview
     id="namedview32486"
     pagecolor="#181825"
     bordercolor="#000000"
     borderopacity="0.24705882"
     inkscape:showpageshadow="2"
     inkscape:pageopacity="0"
     inkscape:pagecheckerboard="0"
     inkscape:deskcolor="#313244"
     inkscape:document-units="px"
     showgrid="true"
     inkscape:zoom="2.9825758"
     inkscape:cx="-15.08763"
     inkscape:cy="22.128524"
     inkscape:window-width="1920"
     inkscape:window-height="1017"
     inkscape:window-x="1912"
     inkscape:window-y="-8"
     inkscape:window-maximized="1"
     inkscape:current-layer="SVGRoot"
     showborder="false"
     showguides="false">
    <inkscape:grid
       type="xygrid"
       id="grid32609"
       originx="0"
       originy="0" />
  </sodipodi:namedview>
  <path
     id="path504"
     style="fill:none;stroke:#f5da55;stroke-width:2;stroke-linecap:round;stroke-linejoin:round;stroke-dasharray:none;stroke-opacity:1;paint-order:fill markers stroke"
     d="M 6.7835669,6.8597139 C 9.2898089,5.3174107 12.06822,3.3603341 15.044693,2.3881167 c 2.629314,-0.858824 5.511664,-1.67032156 8.222235,-1.1192503 1.355412,0.2755615 2.867738,0.9270575 3.566577,2.1206662 0.649584,1.1094801 0.679114,2.7097446 0.09639,3.855757 C 24.734937,11.56203 14.980326,15.508263 14.980326,15.508263 M 17.708063,1.9231043 4.6343579,30.915247 c 0,0 13.9515451,-4.890648 18.6997621,-10.161369 0.987371,-1.096023 2.164238,-2.687979 1.697063,-4.087234 -0.403807,-1.20946 -2.038099,-1.728892 -3.295093,-1.942942 -3.554108,-0.605221 -10.609918,2.100334 -10.609918,2.100334" />
</svg>
