<?xml version="1.0" encoding="UTF-8" standalone="no"?>
<!-- Created with Inkscape (http://www.inkscape.org/) -->

<svg
   width="32"
   height="32"
   viewBox="0 0 32 32"
   version="1.1"
   id="SVGRoot"
   sodipodi:docname="bash.svg"
   inkscape:version="1.2.1 (9c6d41e410, 2022-07-14)"
   xmlns:inkscape="http://www.inkscape.org/namespaces/inkscape"
   xmlns:sodipodi="http://sodipodi.sourceforge.net/DTD/sodipodi-0.dtd"
   xmlns="http://www.w3.org/2000/svg"
   xmlns:svg="http://www.w3.org/2000/svg">
  <defs
     id="defs8" />
  <sodipodi:namedview
     id="namedview32486"
     pagecolor="#181825"
     bordercolor="#000000"
     borderopacity="0.24705882"
     inkscape:showpageshadow="2"
     inkscape:pageopacity="0"
     inkscape:pagecheckerboard="0"
     inkscape:deskcolor="#313244"
     inkscape:document-units="px"
     showgrid="true"
     inkscape:zoom="4.2179991"
     inkscape:cx="73.731641"
     inkscape:cy="37.458519"
     inkscape:window-width="1920"
     inkscape:window-height="1017"
     inkscape:window-x="1912"
     inkscape:window-y="-8"
     inkscape:window-maximized="1"
     inkscape:current-layer="SVGRoot"
     showborder="false">
    <inkscape:grid
       type="xygrid"
       id="grid32609"
       originx="0"
       originy="0" />
  </sodipodi:namedview>
  <path
     id="path3129"
     style="fill:none;fill-opacity:1;stroke:#00d200;stroke-width:2;stroke-linecap:round;stroke-linejoin:round;stroke-dasharray:none;stroke-opacity:1;paint-order:fill markers stroke"
     d="M 7.9103123,25.443738 V 26.50637 M 8.17597,15.162774 8.1494045,16.145709 m 2.0986975,0.637579 c 0,0 -1.4080059,-0.317292 -2.2049604,-0.318789 -0.6471607,-0.0012 -1.3787415,0.124767 -1.8596059,0.557882 -0.4777935,0.430348 -0.8798604,1.151429 -0.7438423,1.779908 0.1661034,0.767489 0.5070402,1.091067 0.9563687,1.461119 0.5022373,0.413625 1.1737738,0.59002 1.8078089,0.736061 0.694291,0.159921 1.4460699,0.344695 1.964534,0.83132 0.317629,0.298124 0.57694,0.733339 0.584447,1.168896 0.0099,0.574483 -0.293478,1.179405 -0.717276,1.567381 -0.4296962,0.393376 -1.0738486,0.480575 -1.6470794,0.584448 -0.4967382,0.09001 -1.0113685,0.07085 -1.5142503,0.02657 -0.4134655,-0.03641 -1.2220267,-0.239092 -1.2220267,-0.239092"
     sodipodi:nodetypes="cccccsasasaaaaac" />
  <path
     fill="none"
     stroke="#00d200"
     stroke-width="5"
     d="m 4.0639869,30.82656 c -1.4209709,0 -3.0174189,-1.590016 -3.0174189,-3.01063 V 9.7514437 c 0,-1.4195405 1.5914445,-3.0109851 3.0106285,-3.0109851 H 22.12204 c 1.418826,0 3.010629,1.5914446 3.010629,3.0109851 V 27.81593 c 0,1.419185 -1.591445,3.01063 -3.010629,3.01063 z"
     id="path2"
     style="stroke-width:2;stroke-dasharray:none" />
  <path
     fill="none"
     stroke="#00d200"
     stroke-width="5"
     d="M 2.0533273,7.745431 6.9098601,2.8413658 C 7.6889637,2.0551143 8.8897844,1.1734404 9.996969,1.1734404 h 17.945834 c 1.406675,0 3.010629,1.5510598 3.010629,2.9577352 V 20.511297 c 0,1.33091 -0.611133,2.730437 -1.521755,3.7011 l -5.257163,5.604901"
     id="path4"
     style="stroke-width:2;stroke-dasharray:none" />
</svg>
