<?xml version="1.0" encoding="UTF-8" standalone="no"?>
<!-- Created with Inkscape (http://www.inkscape.org/) -->

<svg
   width="32"
   height="32"
   viewBox="0 0 32 32"
   version="1.1"
   id="SVGRoot"
   sodipodi:docname="bat.svg"
   inkscape:version="1.2.1 (9c6d41e410, 2022-07-14)"
   xmlns:inkscape="http://www.inkscape.org/namespaces/inkscape"
   xmlns:sodipodi="http://sodipodi.sourceforge.net/DTD/sodipodi-0.dtd"
   xmlns="http://www.w3.org/2000/svg"
   xmlns:svg="http://www.w3.org/2000/svg">
  <defs
     id="defs8" />
  <sodipodi:namedview
     id="namedview32486"
     pagecolor="#181825"
     bordercolor="#000000"
     borderopacity="0.24705882"
     inkscape:showpageshadow="2"
     inkscape:pageopacity="0"
     inkscape:pagecheckerboard="0"
     inkscape:deskcolor="#313244"
     inkscape:document-units="px"
     showgrid="true"
     inkscape:zoom="4.2179991"
     inkscape:cx="73.731641"
     inkscape:cy="37.458519"
     inkscape:window-width="1920"
     inkscape:window-height="1017"
     inkscape:window-x="1912"
     inkscape:window-y="-8"
     inkscape:window-maximized="1"
     inkscape:current-layer="SVGRoot"
     showborder="false">
    <inkscape:grid
       type="xygrid"
       id="grid32609"
       originx="0"
       originy="0" />
  </sodipodi:namedview>
  <path
     fill="none"
     stroke="#00d200"
     stroke-width="5"
     d="m 4.0607856,30.830536 c -1.421352,0 -3.0182282,-1.590442 -3.0182282,-3.011437 V 9.7497682 c 0,-1.4199217 1.5918714,-3.0117931 3.011436,-3.0117931 H 22.123683 c 1.419207,0 3.011435,1.5918714 3.011435,3.0117931 V 27.819099 c 0,1.419565 -1.591871,3.011437 -3.011435,3.011437 z"
     id="path2"
     style="stroke:#d200d2;stroke-width:2;stroke-dasharray:none;stroke-opacity:1" />
  <path
     fill="none"
     stroke="#00d200"
     stroke-width="5"
     d="M 2.0495868,7.743217 6.9074221,2.8378364 C 7.6867347,2.051374 8.8878775,1.1694637 9.9953596,1.1694637 H 27.946007 c 1.407052,0 3.011436,1.5514758 3.011436,2.9585285 V 20.512506 c 0,1.331267 -0.611296,2.73117 -1.522162,3.702093 l -5.258574,5.606405"
     id="path4"
     style="stroke:#d200d2;stroke-width:2;stroke-dasharray:none;stroke-opacity:1" />
  <path
     style="fill:none;fill-opacity:1;stroke:#d200d2;stroke-width:2;stroke-linecap:round;stroke-linejoin:round;stroke-dasharray:none;stroke-opacity:1;paint-order:fill markers stroke"
     d="m 5.2212176,18.219161 5.9223204,3.487253 -5.9223204,3.487253"
     id="path3557"
     sodipodi:nodetypes="ccc" />
</svg>
