<?xml version="1.0" encoding="UTF-8" standalone="no"?>
<!-- Created with Inkscape (http://www.inkscape.org/) -->

<svg
   width="32"
   height="32"
   viewBox="0 0 32 32"
   version="1.1"
   id="SVGRoot"
   sodipodi:docname="browserslist.svg"
   inkscape:version="1.2.1 (9c6d41e410, 2022-07-14)"
   xmlns:inkscape="http://www.inkscape.org/namespaces/inkscape"
   xmlns:sodipodi="http://sodipodi.sourceforge.net/DTD/sodipodi-0.dtd"
   xmlns="http://www.w3.org/2000/svg"
   xmlns:svg="http://www.w3.org/2000/svg">
  <defs
     id="defs8354" />
  <sodipodi:namedview
     id="namedview32486"
     pagecolor="#181825"
     bordercolor="#000000"
     borderopacity="0.24705882"
     inkscape:showpageshadow="2"
     inkscape:pageopacity="0"
     inkscape:pagecheckerboard="0"
     inkscape:deskcolor="#313244"
     inkscape:document-units="px"
     showgrid="true"
     inkscape:zoom="1.4912879"
     inkscape:cx="145.51181"
     inkscape:cy="59.009398"
     inkscape:window-width="1920"
     inkscape:window-height="1017"
     inkscape:window-x="1912"
     inkscape:window-y="-8"
     inkscape:window-maximized="1"
     inkscape:current-layer="SVGRoot"
     showborder="false"
     showguides="false">
    <inkscape:grid
       type="xygrid"
       id="grid32609"
       originx="0"
       originy="0" />
  </sodipodi:namedview>
  <path
     fill="currentColor"
     d="M 30.835702,14.818209 C 30.192165,13.541938 28.410192,13.364021 27.500857,14.389338 25.059623,12.519425 22.692941,8.5902318 24.110083,3.9144869 21.60744,3.6190684 18.888608,4.3830896 16.521696,5.7740573 15.909006,4.4967932 15.582738,3.1317091 15.582738,1.2477741 13.34548,2.4511839 11.545333,4.6824222 10.405789,7.203004 9.1345385,6.5044812 8.064818,5.5665162 6.9631913,3.9938919 5.8336368,6.2350643 5.6300669,9.0570228 6.1209937,11.747224 c -1.4309346,0.151682 -2.8379129,-0.006 -4.6300556,-0.658556 0.3672272,2.514563 1.8500451,4.973325 3.8317933,6.909146 -1.0876627,0.953975 -2.3350717,1.636487 -4.1890303,2.133428 1.7242488,1.830064 4.3107346,2.987607 7.0109292,3.444582 -0.3452593,1.387053 -0.9758849,2.648366 -2.1952445,4.10121 2.4746555,0.510906 5.2686852,-0.02992 7.7493592,-1.213401 0.514876,1.337154 0.722421,2.73414 0.558818,4.62608 3.519193,-1.516006 6.958636,-5.995896 7.545497,-11.270775 2.925439,-0.488645 4.738337,-1.474462 6.210813,-2.254843 2.058275,0.976691 3.616526,-1.128856 2.821829,-2.745886 z m -8.992675,4.424644 c -0.0072,-1.386761 -0.825131,-2.918743 -1.038221,-4.328408 -0.138639,-0.917806 -0.346725,-1.848391 -0.193167,-3.507342 0.005,-1.5008724 1.405184,-4.7949462 2.661647,-6.8459307 m 4.174503,9.8678717 c -1.077884,1.475991 0.03269,2.979924 0.562743,3.143385"
     id="path25125"
     style="fill:none;stroke:#ffd539;stroke-width:2;stroke-linecap:round;stroke-linejoin:round;stroke-dasharray:none;stroke-opacity:1"
     sodipodi:nodetypes="cccccccccccccccccccccccc" />
</svg>
