<?xml version="1.0" encoding="UTF-8" standalone="no"?>
<!-- Created with Inkscape (http://www.inkscape.org/) -->

<svg
   width="32"
   height="32"
   viewBox="0 0 32 32"
   version="1.1"
   id="SVGRoot"
   sodipodi:docname="capacitor.svg"
   inkscape:version="1.2.1 (9c6d41e410, 2022-07-14)"
   xmlns:inkscape="http://www.inkscape.org/namespaces/inkscape"
   xmlns:sodipodi="http://sodipodi.sourceforge.net/DTD/sodipodi-0.dtd"
   xmlns="http://www.w3.org/2000/svg"
   xmlns:svg="http://www.w3.org/2000/svg">
  <defs
     id="defs8354" />
  <sodipodi:namedview
     id="namedview32486"
     pagecolor="#181825"
     bordercolor="#000000"
     borderopacity="0.24705882"
     inkscape:showpageshadow="2"
     inkscape:pageopacity="0"
     inkscape:pagecheckerboard="0"
     inkscape:deskcolor="#313244"
     inkscape:document-units="px"
     showgrid="true"
     inkscape:zoom="2.4359829"
     inkscape:cx="-11.69959"
     inkscape:cy="-11.904846"
     inkscape:window-width="1920"
     inkscape:window-height="1017"
     inkscape:window-x="1912"
     inkscape:window-y="-8"
     inkscape:window-maximized="1"
     inkscape:current-layer="SVGRoot"
     showborder="false"
     showguides="false">
    <inkscape:grid
       type="xygrid"
       id="grid32609"
       originx="0"
       originy="0" />
  </sodipodi:namedview>
  <path
     fill="url(#vscodeIconsFileTypeCapacitor0)"
     d="m 30.647727,17.880622 c 0.351647,0.346301 0.336682,0.534418 -0.0075,0.866824 -1.175716,1.139373 -2.330054,2.309745 -3.4876,3.472635 -0.197735,0.198803 -0.340956,0.351645 -0.62206,0.0684 Q 21.309341,17.024487 16.068856,11.781865 12.874117,8.6138466 9.67617,5.4490346 C 9.4709541,5.247025 9.4944686,5.1102146 9.6879258,4.9146181 Q 11.550902,3.069814 13.395707,1.2047018 c 0.228729,-0.23193653 0.368747,-0.191321 0.5761,0.01817 q 2.273407,2.3044023 4.563914,4.5959783 c 0.413638,0.3997433 0.825138,0.802693 1.241983,1.1981611 0.166738,0.1581873 0.296066,0.3762294 0.565413,0.3858483 q 3.09427,-3.0867877 6.184264,-6.1789188 c 0.229799,-0.23086802 0.37516,-0.26293291 0.623129,-0.011757 a 200.87634,200.87634 0 0 0 3.588068,3.5538671 c 0.315307,0.3024797 0.283239,0.4660109 -0.0096,0.7545959 -1.936725,1.9100028 -3.842453,3.847796 -5.789866,5.7503163 -0.400811,0.390124 -0.35485,0.581445 0.01709,0.945917 1.910005,1.873663 3.782598,3.787942 5.691532,5.663742 z M 15.924564,20.22457 a 0.66588252,0.66588252 0 0 0 -0.07161,-0.106881 Q 10.678734,14.942402 5.5077239,9.7617724 c -0.2629322,-0.2629326 -0.4157759,-0.257588 -0.672295,0 A 195.9704,195.9704 0 0 1 1.3082824,13.288919 c -0.33988863,0.327063 -0.2949978,0.50342 0.016034,0.810175 1.9057277,1.881144 3.7793905,3.793285 5.6915312,5.66481 0.3869175,0.380505 0.3740916,0.586789 -0.00748,0.961948 -1.9238985,1.891835 -3.813594,3.818939 -5.7278726,5.721459 -0.2800341,0.277897 -0.35485235,0.444636 -0.025651,0.764217 a 154.48688,154.48688 0 0 1 3.5153901,3.536766 c 0.277897,0.288585 0.4275333,0.284309 0.708636,0 q 1.9687892,-2.01261 3.9803318,-3.985674 a 29.882413,29.882413 0 0 1 2.3204341,-2.244549 l 1.678067,1.671654 q 2.279819,2.287301 4.555364,4.579947 c 0.213766,0.213765 0.370884,0.221246 0.587857,0 q 1.842669,-1.8587 3.702437,-3.699229 c 0.197731,-0.195598 0.199871,-0.332407 0,-0.534417 Q 19.107548,23.390453 15.924566,20.22457 Z"
     id="path9"
     style="display:inline;fill:none;stroke:#56b1fc;stroke-width:2;stroke-linecap:round;stroke-linejoin:round;stroke-dasharray:none;stroke-opacity:1" />
</svg>
