<?xml version="1.0" encoding="UTF-8" standalone="no"?>
<!-- Created with Inkscape (http://www.inkscape.org/) -->

<svg
   width="32"
   height="32"
   viewBox="0 0 32 32"
   version="1.1"
   id="SVGRoot"
   sodipodi:docname="certificate.svg"
   inkscape:version="1.2.1 (9c6d41e410, 2022-07-14)"
   xmlns:inkscape="http://www.inkscape.org/namespaces/inkscape"
   xmlns:sodipodi="http://sodipodi.sourceforge.net/DTD/sodipodi-0.dtd"
   xmlns="http://www.w3.org/2000/svg"
   xmlns:svg="http://www.w3.org/2000/svg">
  <defs
     id="defs44872" />
  <sodipodi:namedview
     id="namedview32486"
     pagecolor="#181825"
     bordercolor="#000000"
     borderopacity="0.24705882"
     inkscape:showpageshadow="2"
     inkscape:pageopacity="0"
     inkscape:pagecheckerboard="0"
     inkscape:deskcolor="#313244"
     inkscape:document-units="px"
     showgrid="true"
     inkscape:zoom="1.4849242"
     inkscape:cx="-60.609153"
     inkscape:cy="43.099842"
     inkscape:window-width="1920"
     inkscape:window-height="1017"
     inkscape:window-x="1912"
     inkscape:window-y="-8"
     inkscape:window-maximized="1"
     inkscape:current-layer="SVGRoot"
     showborder="false">
    <inkscape:grid
       type="xygrid"
       id="grid32609"
       originx="0"
       originy="0" />
  </sodipodi:namedview>
  <path
     fill-rule="evenodd"
     clip-rule="evenodd"
     d="m 17.597882,1.6964526 c -0.88249,-0.88248927 -2.313255,-0.88248927 -3.195745,0 L 12.255989,3.8426008 H 9.2208434 c -1.248022,0 -2.259722,1.0117231 -2.259722,2.2597223 V 9.1374689 L 4.8149504,11.28364 c -0.882466,0.882467 -0.882466,2.313255 0,3.195722 l 2.146171,2.146171 v 3.035123 c 0,1.248045 1.0117,2.259723 2.259722,2.259723 h 2.2597226 v 9.038888 l 4.519444,-4.519444 4.519444,4.519444 v -9.038888 h 2.259722 c 1.248044,0 2.259722,-1.011678 2.259722,-2.259723 v -3.035123 l 2.146058,-2.146171 c 0.882648,-0.882467 0.882648,-2.313255 0,-3.195722 L 25.038898,9.1374689 V 6.1023231 c 0,-1.2479992 -1.011678,-2.2597223 -2.259722,-2.2597223 H 19.74403 Z"
     fill="#46c5c5"
     id="path2613"
     style="fill:none;stroke:#94081a;stroke-width:2;stroke-linecap:round;stroke-linejoin:round;stroke-dasharray:none;stroke-opacity:1"
     sodipodi:nodetypes="sscsscsscsscccccssccccsscs" />
  <path
     d="m 16.000002,17.352533 c 2.496022,0 4.519446,-2.023423 4.519446,-4.519444 0,-2.496022 -2.023424,-4.5194452 -4.519446,-4.5194452 -2.496021,0 -4.519442,2.0234232 -4.519442,4.5194452 0,2.496021 2.023421,4.519444 4.519442,4.519444 z"
     style="clip-rule:evenodd;display:inline;fill:none;fill-rule:evenodd;stroke:#ce8b0f;stroke-width:2;stroke-linecap:round;stroke-linejoin:round;stroke-dasharray:none;stroke-opacity:1"
     id="path3590" />
</svg>
