<?xml version="1.0" encoding="UTF-8" standalone="no"?>
<!-- Created with Inkscape (http://www.inkscape.org/) -->

<svg
   width="32"
   height="32"
   viewBox="0 0 32 32"
   version="1.1"
   id="SVGRoot"
   sodipodi:docname="clojure.svg"
   inkscape:version="1.2.1 (9c6d41e410, 2022-07-14)"
   xmlns:inkscape="http://www.inkscape.org/namespaces/inkscape"
   xmlns:sodipodi="http://sodipodi.sourceforge.net/DTD/sodipodi-0.dtd"
   xmlns="http://www.w3.org/2000/svg"
   xmlns:svg="http://www.w3.org/2000/svg">
  <defs
     id="defs11" />
  <sodipodi:namedview
     id="namedview32486"
     pagecolor="#181825"
     bordercolor="#000000"
     borderopacity="0.24705882"
     inkscape:showpageshadow="2"
     inkscape:pageopacity="0"
     inkscape:pagecheckerboard="0"
     inkscape:deskcolor="#313244"
     inkscape:document-units="px"
     showgrid="true"
     inkscape:zoom="4.2179991"
     inkscape:cx="28.923666"
     inkscape:cy="54.765303"
     inkscape:window-width="1920"
     inkscape:window-height="1017"
     inkscape:window-x="1912"
     inkscape:window-y="-8"
     inkscape:window-maximized="1"
     inkscape:current-layer="SVGRoot"
     showborder="false">
    <inkscape:grid
       type="xygrid"
       id="grid32609"
       originx="0"
       originy="0" />
  </sodipodi:namedview>
  <path
     stroke="#63b32e"
     d="M 20.234014,23.176203 A 8.3321476,8.3321476 0 0 1 11.806843,23.200043 8.3321476,8.3321476 0 0 1 7.669241,15.8587 8.3321476,8.3321476 0 0 1 12.053832,8.6618477"
     id="path18273"
     style="fill:none;stroke-width:2;stroke-linecap:round;stroke-linejoin:round;stroke-dasharray:none" />
  <path
     stroke="#5782d9"
     d="M 12.008278,8.6864085 A 8.3321476,8.3321476 0 0 1 23.195037,11.79833 8.3321476,8.3321476 0 0 1 20.408401,23.070147"
     id="path18275"
     style="fill:none;stroke-width:2;stroke-linecap:round;stroke-linejoin:round;stroke-dasharray:none" />
  <path
     stroke="#63b32e"
     d="M 30.209317,20.664672 A 14.955301,14.955301 0 0 1 11.38689,30.226071 14.955301,14.955301 0 0 1 1.7571602,11.438879"
     id="path18277"
     style="fill:none;stroke-width:2;stroke-linecap:round;stroke-linejoin:round;stroke-dasharray:none" />
  <path
     stroke="#5782d9"
     d="M 1.8888404,11.045618 A 14.955301,14.955301 0 0 1 20.659305,1.788862 14.955301,14.955301 0 0 1 30.305049,20.362163"
     id="path18279"
     style="fill:none;stroke-width:2;stroke-linecap:round;stroke-linejoin:round;stroke-dasharray:none" />
  <path
     stroke="#ffffff"
     d="m 15.670764,15.460105 c 0,0 -3.501267,5.420949 -3.121886,8.121103"
     id="path18281"
     style="fill:none;stroke-width:2;stroke-linecap:round;stroke-linejoin:round;stroke-dasharray:none" />
  <path
     stroke="#ffffff"
     d="M 1.8546748,11.177654 C 2.9234188,8.707762 6.1360574,7.7842219 8.8369231,7.7319056 16.437712,7.5845661 14.870719,20.790657 20.790985,23.299341 c 2.79055,1.182274 7.953478,-0.142356 9.438261,-2.686986"
     id="path18283"
     style="fill:none;stroke-width:2;stroke-linecap:round;stroke-linejoin:round;stroke-dasharray:none" />
</svg>
