<?xml version="1.0" encoding="UTF-8" standalone="no"?>
<!-- Created with Inkscape (http://www.inkscape.org/) -->

<svg
   width="32"
   height="32"
   viewBox="0 0 32 32"
   version="1.1"
   id="SVGRoot"
   sodipodi:docname="code_of_conduct.svg"
   inkscape:version="1.2.1 (9c6d41e410, 2022-07-14)"
   xmlns:inkscape="http://www.inkscape.org/namespaces/inkscape"
   xmlns:sodipodi="http://sodipodi.sourceforge.net/DTD/sodipodi-0.dtd"
   xmlns="http://www.w3.org/2000/svg"
   xmlns:svg="http://www.w3.org/2000/svg">
  <defs
     id="defs8354" />
  <sodipodi:namedview
     id="namedview32486"
     pagecolor="#181825"
     bordercolor="#000000"
     borderopacity="0.24705882"
     inkscape:showpageshadow="2"
     inkscape:pageopacity="0"
     inkscape:pagecheckerboard="0"
     inkscape:deskcolor="#313244"
     inkscape:document-units="px"
     showgrid="true"
     inkscape:zoom="4.2179991"
     inkscape:cx="146.27789"
     inkscape:cy="54.765303"
     inkscape:window-width="1920"
     inkscape:window-height="1017"
     inkscape:window-x="1912"
     inkscape:window-y="-8"
     inkscape:window-maximized="1"
     inkscape:current-layer="SVGRoot"
     showborder="false"
     showguides="false">
    <inkscape:grid
       type="xygrid"
       id="grid32609"
       originx="0"
       originy="0" />
  </sodipodi:namedview>
  <path
     d="m 28.476411,16.956163 -12.462641,12.343 -12.4626408,-12.343 A 8.3084275,8.3084275 0 1 1 16.01377,6.0455354 8.3084275,8.3084275 0 1 1 28.476411,16.966133"
     id="path61665"
     style="fill:none;stroke:#b0204a;stroke-width:2;stroke-linecap:round;stroke-linejoin:round;stroke-dasharray:none;stroke-opacity:1" />
  <path
     d="m 16.01377,6.0355654 -5.47193,5.4719306 a 1.6616855,1.6616855 0 0 0 0,2.349623 l 0.902295,0.902296 c 1.146563,1.146562 3.007651,1.146562 4.154214,0 l 1.661685,-1.661686 a 5.2874832,5.2874832 0 0 1 7.477585,0 l 3.738792,3.738792 m -11.631798,4.985057 3.323371,3.323371 m 0.830843,-7.477585 3.323371,3.323371"
     id="path61667"
     style="fill:none;stroke:#b0204a;stroke-width:2;stroke-linecap:round;stroke-linejoin:round;stroke-dasharray:none;stroke-opacity:1" />
</svg>
