<?xml version="1.0" encoding="UTF-8" standalone="no"?>
<!-- Created with Inkscape (http://www.inkscape.org/) -->

<svg
   width="32"
   height="32"
   viewBox="0 0 32 32"
   version="1.1"
   id="SVGRoot"
   sodipodi:docname="coffeescript.svg"
   inkscape:version="1.2.1 (9c6d41e410, 2022-07-14)"
   xmlns:inkscape="http://www.inkscape.org/namespaces/inkscape"
   xmlns:sodipodi="http://sodipodi.sourceforge.net/DTD/sodipodi-0.dtd"
   xmlns="http://www.w3.org/2000/svg"
   xmlns:svg="http://www.w3.org/2000/svg">
  <defs
     id="defs8" />
  <sodipodi:namedview
     id="namedview32486"
     pagecolor="#181825"
     bordercolor="#000000"
     borderopacity="0.24705882"
     inkscape:showpageshadow="2"
     inkscape:pageopacity="0"
     inkscape:pagecheckerboard="0"
     inkscape:deskcolor="#313244"
     inkscape:document-units="px"
     showgrid="true"
     inkscape:zoom="4.2179991"
     inkscape:cx="18.018022"
     inkscape:cy="55.71362"
     inkscape:window-width="1920"
     inkscape:window-height="1017"
     inkscape:window-x="1912"
     inkscape:window-y="-8"
     inkscape:window-maximized="1"
     inkscape:current-layer="SVGRoot"
     showborder="false">
    <inkscape:grid
       type="xygrid"
       id="grid32609"
       originx="0"
       originy="0" />
  </sodipodi:namedview>
  <path
     d="m 3.0481385,11.832066 c 7.8423365,3.93158 21.4223965,3.665261 27.9090295,0 -1.128475,3.724078 -3.857786,12.018315 -6.633492,14.723149 -2.77607,2.704833 -3.967746,2.640902 -6.552754,2.750498 -2.584643,0.109596 -4.93475,0.160741 -8.0085573,-2.588661 C 6.6885578,23.966919 3.5676246,17.441198 3.0477732,11.832066 Z"
     id="path22137"
     style="fill:none;stroke:#6f4e37;stroke-width:2;stroke-linecap:round;stroke-linejoin:round;stroke-dasharray:none;stroke-opacity:1" />
  <path
     d="m 3.0094147,7.6785389 c 7.8496423,3.9355981 21.4435853,3.6689141 27.9360633,0 M 12.526374,2.9898199 C 10.796241,2.1576391 8.6565396,3.0504121 8.5538846,4.3714113 8.4501335,5.7051959 10.985093,5.8250219 12.321435,5.7570719 c 1.347303,-0.06868 2.450571,-1.133955 3.637497,-1.7754578 1.452149,-0.7850738 2.902107,-1.1368775 4.373618,-0.9096481 1.194598,0.1848523 3.307977,0.4164653 3.161484,1.7754579 -0.188871,1.749885 -4.291472,1.900378 -5.164543,1.176653 M 3.5004053,15.688755 c -3.97761019,3.702524 -3.44862587,9.181966 4.0619992,9.012458"
     id="path22139"
     style="fill:none;stroke:#6f4e37;stroke-width:2;stroke-linecap:round;stroke-linejoin:round;stroke-dasharray:none;stroke-opacity:1"
     sodipodi:nodetypes="ccccccccccc" />
</svg>
