<?xml version="1.0" encoding="UTF-8" standalone="no"?>
<!-- Created with Inkscape (http://www.inkscape.org/) -->

<svg
   width="32"
   height="32"
   viewBox="0 0 32 32"
   version="1.1"
   id="SVGRoot"
   sodipodi:docname="cpp.svg"
   inkscape:version="1.2.1 (9c6d41e, 2022-07-14)"
   xmlns:inkscape="http://www.inkscape.org/namespaces/inkscape"
   xmlns:sodipodi="http://sodipodi.sourceforge.net/DTD/sodipodi-0.dtd"
   xmlns="http://www.w3.org/2000/svg"
   xmlns:svg="http://www.w3.org/2000/svg">
  <defs
     id="defs1361" />
  <sodipodi:namedview
     id="namedview32486"
     pagecolor="#181825"
     bordercolor="#000000"
     borderopacity="0.24705882"
     inkscape:showpageshadow="2"
     inkscape:pageopacity="0"
     inkscape:pagecheckerboard="0"
     inkscape:deskcolor="#313244"
     inkscape:document-units="px"
     showgrid="true"
     inkscape:zoom="4.5054921"
     inkscape:cx="54.267102"
     inkscape:cy="42.836608"
     inkscape:window-width="1432"
     inkscape:window-height="760"
     inkscape:window-x="0"
     inkscape:window-y="38"
     inkscape:window-maximized="0"
     inkscape:current-layer="SVGRoot"
     showborder="false">
    <inkscape:grid
       type="xygrid"
       id="grid32609"
       originx="0"
       originy="0" />
  </sodipodi:namedview>
  <path
     d="m 17.226552,1.3759189 10.824984,6.2497966 c 0.254555,0.1469767 0.47636,0.335784 0.658717,0.5548599 0.361239,0.434108 0.56791,0.9871818 0.56791,1.5696566 v 6.249793 6.249818 c 0,0.45279 -0.124796,0.887816 -0.350075,1.262999 -0.210888,0.351043 -0.509606,0.649686 -0.876552,0.861492 l -10.824984,6.249918 c -0.3795,0.219076 -0.803038,0.32849 -1.226577,0.32849 -0.423539,0 -0.847077,-0.109414 -1.226577,-0.32849 L 3.9484197,24.374334 C 3.5815404,24.162528 3.2827562,23.863885 3.0719518,23.512842 2.8466385,23.137659 2.7218371,22.702633 2.7218371,22.249843 V 16.000025 9.750231 c 0,-0.876428 0.4675697,-1.6862896 1.2265826,-2.1245159 L 14.773398,1.3759189 c 0.3795,-0.2191081 0.803038,-0.328661 1.226577,-0.328661 0.423539,0 0.847077,0.1095529 1.226577,0.328661 z"
     stroke="#2b66ff"
     stroke-width="6.22394"
     id="path25735"
     style="fill:none;stroke:#00599d;stroke-width:1.59452;stroke-linecap:round;stroke-linejoin:round;stroke-dasharray:none;stroke-opacity:1" />
  <path
     id="path30742"
     style="fill:none;stroke:#ffffff;stroke-width:1.59452;stroke-linecap:round;stroke-linejoin:round;stroke-dasharray:none;stroke-opacity:1"
     d="m 14.998365,15.909989 h 3.009741 m -1.504871,1.50487 v -3.009741" />
  <path
     id="path30754"
     style="fill:none;stroke:#ffffff;stroke-width:1.59452;stroke-linecap:round;stroke-linejoin:round;stroke-dasharray:none;stroke-opacity:1"
     d="m 21.247972,15.909989 h 3.00974 m -1.50487,1.50487 v -3.009741" />
  <path
     style="fill:none;stroke:#ffffff;stroke-width:1.59452;stroke-linecap:round;stroke-linejoin:round;stroke-opacity:1"
     id="path45427"
     sodipodi:type="arc"
     sodipodi:cx="16"
     sodipodi:cy="16"
     sodipodi:rx="7.9725795"
     sodipodi:ry="7.9725795"
     sodipodi:start="0.75943707"
     sodipodi:end="5.5076988"
     sodipodi:arc-type="arc"
     d="M 21.781904,21.489227 A 7.9725795,7.9725795 0 0 1 13.074625,23.416482 7.9725795,7.9725795 0 0 1 8.0276772,16.063977 7.9725795,7.9725795 0 0 1 12.955977,8.6314218 7.9725795,7.9725795 0 0 1 21.693064,10.418688"
     sodipodi:open="true" />
</svg>
