<?xml version="1.0" encoding="UTF-8" standalone="no"?>
<!-- Created with Inkscape (http://www.inkscape.org/) -->

<svg
   width="32"
   height="32"
   viewBox="0 0 32 32"
   version="1.1"
   id="SVGRoot"
   sodipodi:docname="css_map.svg"
   inkscape:version="1.2.1 (9c6d41e410, 2022-07-14)"
   xmlns:inkscape="http://www.inkscape.org/namespaces/inkscape"
   xmlns:sodipodi="http://sodipodi.sourceforge.net/DTD/sodipodi-0.dtd"
   xmlns="http://www.w3.org/2000/svg"
   xmlns:svg="http://www.w3.org/2000/svg">
  <defs
     id="defs22695" />
  <sodipodi:namedview
     id="namedview32486"
     pagecolor="#181825"
     bordercolor="#000000"
     borderopacity="0.24705882"
     inkscape:showpageshadow="2"
     inkscape:pageopacity="0"
     inkscape:pagecheckerboard="0"
     inkscape:deskcolor="#313244"
     inkscape:document-units="px"
     showgrid="true"
     inkscape:zoom="2.9825758"
     inkscape:cx="-35.707391"
     inkscape:cy="41.910083"
     inkscape:window-width="1920"
     inkscape:window-height="1017"
     inkscape:window-x="1912"
     inkscape:window-y="-8"
     inkscape:window-maximized="1"
     inkscape:current-layer="SVGRoot"
     showborder="false">
    <inkscape:grid
       type="xygrid"
       id="grid32609"
       originx="0"
       originy="0" />
  </sodipodi:namedview>
  <path
     d="M 17.876967,4.2300867 H 30.973645 L 28.599957,28.125214 19.105205,30.97364 9.610452,28.125214 9.3137412,25.138324 9.2395632,24.391601"
     id="path22835"
     style="fill:none;stroke:#2965f1;stroke-width:2;stroke-linecap:round;stroke-linejoin:round;stroke-dasharray:none;stroke-opacity:1"
     sodipodi:nodetypes="ccccccc" />
  <path
     d="m 18.392004,9.2651543 h 7.834265 l -1.510615,14.6665447 -5.610449,1.349837 -5.584498,-1.349837 -0.330734,-3.686496 m 3.036422,-4.089707 h 8.382918"
     id="path22837"
     style="fill:none;stroke:#ffffff;stroke-width:2;stroke-linecap:round;stroke-linejoin:round;stroke-dasharray:none;stroke-opacity:1"
     sodipodi:nodetypes="cccccccc" />
  <path
     fill="currentColor"
     d="m 8.1786976,1.0263643 c -3.9516427,0 -7.1523226,3.2024512 -7.1523226,7.1523181 -0.00254,1.5426917 0.4960988,3.0444656 1.4207792,4.2793196 l 4.5877198,7.946401 c 0.026637,0.05122 0.053259,0.102208 0.085977,0.149127 l 0.010152,0.0175 0.00315,-0.0014 c 0.242326,0.337667 0.6330986,0.537165 1.0487157,0.53539 0.3946325,0 0.7385398,-0.179562 0.9751669,-0.45626 l 0.011885,0.0068 0.045413,-0.07863 c 0.066972,-0.09029 0.1263019,-0.186663 0.1691639,-0.292929 l 4.4946465,-7.785659 c 0.944244,-1.241896 1.454464,-2.759547 1.452224,-4.3196435 0,-3.949867 -3.200675,-7.1523189 -7.1523176,-7.1523189 z"
     id="path17414"
     style="fill:none;stroke:#ea2d2e;stroke-width:2;stroke-linecap:round;stroke-linejoin:round;stroke-dasharray:none;stroke-opacity:1"
     sodipodi:nodetypes="cccccccccccccccc" />
  <circle
     style="fill:none;stroke:#ea2d2e;stroke-width:2;stroke-linecap:round;stroke-linejoin:round;stroke-dasharray:none;stroke-opacity:1;paint-order:fill markers stroke"
     id="path17976"
     cx="8.1792965"
     cy="8.4151068"
     r="3.065542" />
</svg>
