<?xml version="1.0" encoding="UTF-8" standalone="no"?>
<!-- Created with Inkscape (http://www.inkscape.org/) -->

<svg
   width="32"
   height="32"
   viewBox="0 0 32 32"
   version="1.1"
   id="SVGRoot"
   sodipodi:docname="cucumber.svg"
   inkscape:version="1.2.1 (9c6d41e410, 2022-07-14)"
   xmlns:inkscape="http://www.inkscape.org/namespaces/inkscape"
   xmlns:sodipodi="http://sodipodi.sourceforge.net/DTD/sodipodi-0.dtd"
   xmlns="http://www.w3.org/2000/svg"
   xmlns:svg="http://www.w3.org/2000/svg">
  <defs
     id="defs22695" />
  <sodipodi:namedview
     id="namedview32486"
     pagecolor="#181825"
     bordercolor="#000000"
     borderopacity="0.24705882"
     inkscape:showpageshadow="2"
     inkscape:pageopacity="0"
     inkscape:pagecheckerboard="0"
     inkscape:deskcolor="#313244"
     inkscape:document-units="px"
     showgrid="true"
     inkscape:zoom="5.9651516"
     inkscape:cx="49.621539"
     inkscape:cy="45.765811"
     inkscape:window-width="1920"
     inkscape:window-height="1017"
     inkscape:window-x="1912"
     inkscape:window-y="-8"
     inkscape:window-maximized="1"
     inkscape:current-layer="SVGRoot"
     showborder="false">
    <inkscape:grid
       type="xygrid"
       id="grid32609"
       originx="0"
       originy="0" />
  </sodipodi:namedview>
  <path
     fill="none"
     stroke="#23d96c"
     stroke-linecap="round"
     stroke-linejoin="round"
     stroke-width="5.59597"
     d="m 29.290413,14.351464 c -0.01667,9.157278 -7.431866,16.589499 -16.589499,16.606168 v -3.749448 l -0.01631,-0.01631 C 5.584339,25.350129 1.3039672,18.117226 3.1290391,11.016966 A 13.273089,13.273089 0 0 1 19.287276,1.4614055 C 25.143038,2.9711861 29.290058,8.3130503 29.290058,14.368487 Z M 13.53046,9.3912118 12.700914,7.73212 m 5.806468,11.612933 0.829544,1.658737 m -8.295104,-4.147374 -1.6590923,0.829546 m 4.9769213,1.659091 -0.829546,1.658737 M 17.67748,9.3912118 18.507027,7.73212 m 4.147375,9.124296 -1.659091,-0.829546 M 11.041822,12.709041 9.3827297,11.879495"
     id="path26633"
     style="stroke-width:2;stroke-dasharray:none" />
</svg>
