<?xml version="1.0" encoding="UTF-8" standalone="no"?>
<!-- Created with Inkscape (http://www.inkscape.org/) -->

<svg
   width="32"
   height="32"
   viewBox="0 0 32 32"
   version="1.1"
   id="SVGRoot"
   sodipodi:docname="cypress.svg"
   inkscape:version="1.2.1 (9c6d41e410, 2022-07-14)"
   xmlns:inkscape="http://www.inkscape.org/namespaces/inkscape"
   xmlns:sodipodi="http://sodipodi.sourceforge.net/DTD/sodipodi-0.dtd"
   xmlns="http://www.w3.org/2000/svg"
   xmlns:svg="http://www.w3.org/2000/svg">
  <defs
     id="defs8354" />
  <sodipodi:namedview
     id="namedview32486"
     pagecolor="#181825"
     bordercolor="#000000"
     borderopacity="0.24705882"
     inkscape:showpageshadow="2"
     inkscape:pageopacity="0"
     inkscape:pagecheckerboard="0"
     inkscape:deskcolor="#313244"
     inkscape:document-units="px"
     showgrid="true"
     inkscape:zoom="1.4912879"
     inkscape:cx="65.71501"
     inkscape:cy="14.752349"
     inkscape:window-width="1920"
     inkscape:window-height="1017"
     inkscape:window-x="1912"
     inkscape:window-y="-8"
     inkscape:window-maximized="1"
     inkscape:current-layer="SVGRoot"
     showborder="false"
     showguides="false">
    <inkscape:grid
       type="xygrid"
       id="grid32609"
       originx="0"
       originy="0" />
  </sodipodi:namedview>
  <path
     id="path7902"
     style="fill:none;stroke:#04c38e;stroke-width:2;stroke-linecap:round;stroke-linejoin:round;stroke-dasharray:none;paint-order:fill markers stroke"
     d="m 15.311532,18.439154 a 4.7042316,4.6668966 0 0 1 -5.218903,2.208754 4.7042316,4.6668966 0 0 1 -3.5648304,-4.379249 4.7042316,4.6668966 0 0 1 3.2752741,-4.596424 4.7042316,4.6668966 0 0 1 5.3505863,1.873172 m 6.604483,7.427541 -4.181539,-9.296497 m -1.583154,19.286858 c 0.845713,-0.109926 1.213875,-0.169403 1.684224,-0.483092 0.288381,-0.244163 0.563561,-0.646725 0.693543,-0.996487 l 7.38179,-17.807279 M 15.917268,30.96211 A 14.962445,14.962445 0 0 1 1.2111033,18.26531 14.962445,14.962445 0 0 1 11.442591,1.7487527 14.962445,14.962445 0 0 1 29.360202,9.2613551 14.962445,14.962445 0 0 1 24.752673,28.135959" />
</svg>
