<?xml version="1.0" encoding="UTF-8" standalone="no"?>
<!-- Created with Inkscape (http://www.inkscape.org/) -->

<svg
   width="32"
   height="32"
   viewBox="0 0 32 32"
   version="1.1"
   id="SVGRoot"
   sodipodi:docname="deno_lock.svg"
   inkscape:version="1.2.1 (9c6d41e410, 2022-07-14)"
   inkscape:export-filename="deno_lock.svg"
   inkscape:export-xdpi="96"
   inkscape:export-ydpi="96"
   xmlns:inkscape="http://www.inkscape.org/namespaces/inkscape"
   xmlns:sodipodi="http://sodipodi.sourceforge.net/DTD/sodipodi-0.dtd"
   xmlns="http://www.w3.org/2000/svg"
   xmlns:svg="http://www.w3.org/2000/svg">
  <defs
     id="defs8354" />
  <sodipodi:namedview
     id="namedview32486"
     pagecolor="#181825"
     bordercolor="#000000"
     borderopacity="0.24705882"
     inkscape:showpageshadow="2"
     inkscape:pageopacity="0"
     inkscape:pagecheckerboard="0"
     inkscape:deskcolor="#313244"
     inkscape:document-units="px"
     showgrid="true"
     inkscape:zoom="5.939697"
     inkscape:cx="19.277078"
     inkscape:cy="50.844345"
     inkscape:window-width="1920"
     inkscape:window-height="1017"
     inkscape:window-x="1912"
     inkscape:window-y="-8"
     inkscape:window-maximized="1"
     inkscape:current-layer="SVGRoot"
     showborder="false"
     showguides="false">
    <inkscape:grid
       type="xygrid"
       id="grid32609"
       originx="0"
       originy="0" />
  </sodipodi:namedview>
  <path
     d="m 1.036511,14.411406 c 0,7.386758 5.9881465,13.374894 13.3749,13.374894 0.461672,0 0.91788,-0.02339 1.367505,-0.06905 0.224813,-0.02283 0.447979,-0.05123 0.66936,-0.08506 0.05534,-0.0085 0.110578,-0.01725 0.165698,-0.02639 M 27.717257,15.778913 c 0.04566,-0.449625 0.06905,-0.905834 0.06905,-1.367507 0,-7.3867582 -5.988147,-13.3748938 -13.374899,-13.3748938 -7.3867535,0 -13.3749,5.9881356 -13.3749,13.3748938"
     id="path1665"
     style="fill:none;stroke:#ffffff;stroke-width:2;stroke-linecap:round;stroke-linejoin:round;stroke-dasharray:none;stroke-opacity:1"
     sodipodi:nodetypes="csssccssc" />
  <path
     d="m 16.595977,27.545404 -2.184566,-8.675698 c -3.936679,-0.130777 -7.4305004,-2.413426 -7.4305004,-5.20135 0,-2.872631 3.3273784,-5.20135 7.4305004,-5.20135 4.103122,0 5.944399,1.4861001 7.430499,4.458301 0.01783,0.03567 0.274186,0.858594 0.769429,2.468597"
     id="path1667"
     style="fill:none;stroke:#ffffff;stroke-width:2;stroke-linecap:round;stroke-linejoin:round;stroke-dasharray:none;stroke-opacity:1"
     sodipodi:nodetypes="ccsssc" />
  <circle
     style="fill:#ffffff;fill-opacity:1;stroke:none;stroke-width:2;stroke-linecap:round;stroke-linejoin:round;stroke-dasharray:none;stroke-opacity:1;paint-order:fill markers stroke"
     id="path6692"
     cx="15.755069"
     cy="12.272935"
     r="0.70589745" />
  <path
     fill="none"
     stroke="currentColor"
     d="m 22.582837,23.514014 v -2.793552 a 2.7935524,2.7935524 0 0 1 5.587104,0 v 2.793552 m -7.449474,0 h 9.311844 a 0.93118407,0.93118407 0 0 1 0.931181,0.931185 v 5.587103 a 0.93118407,0.93118407 0 0 1 -0.931181,0.931186 h -9.311844 a 0.93118407,0.93118407 0 0 1 -0.931183,-0.931186 v -5.587103 a 0.93118407,0.93118407 0 0 1 0.931183,-0.931185 z"
     id="path28745"
     style="stroke:#808080;stroke-width:2;stroke-dasharray:none;stroke-opacity:1" />
</svg>
