<svg xmlns="http://www.w3.org/2000/svg" width="32" height="32">
<style>:root {--ctp-rosewater: #f5e0dc;--ctp-flamingo: #f2cdcd;--ctp-pink: #f5c2e7;--ctp-mauve: #cba6f7;--ctp-red: #f38ba8;--ctp-maroon: #eba0ac;--ctp-peach: #fab387;--ctp-yellow: #f9e2af;--ctp-green: #a6e3a1;--ctp-teal: #94e2d5;--ctp-sky: #89dceb;--ctp-sapphire: #74c7ec;--ctp-blue: #89b4fa;--ctp-lavender: #b4befe;--ctp-text: #cdd6f4;--ctp-overlay1: #7f849c;}</style>
    <path fill="none" stroke="var(--ctp-mauve)" stroke-width="2" d="M16 .92c12 0 15 3 15 15s-3 15-15 15-15-3-15-15 3-15 15-15Z"/>
    <path fill="none" stroke="var(--ctp-mauve)" stroke-linecap="round" stroke-linejoin="round" stroke-width="2" d="M10.772 24.124c1.895-.703 2.728-1.537 5.228-1.537 2.5 0 3.333.834 5.23 1.537 1.188.44 2.527-.17 2.963-1.287a2.008 2.008 0 0 0-.073-1.638L17.94 8.742c-.495-.996-1.763-1.431-2.833-.971a2.067 2.067 0 0 0-1.045.971L7.88 21.2c-.535 1.08-.028 2.358 1.132 2.857.553.238 1.191.278 1.76.066z"/>
</svg>
