<svg xmlns="http://www.w3.org/2000/svg" width="32" height="32">
<style>:root {--ctp-rosewater: #f5e0dc;--ctp-flamingo: #f2cdcd;--ctp-pink: #f5c2e7;--ctp-mauve: #cba6f7;--ctp-red: #f38ba8;--ctp-maroon: #eba0ac;--ctp-peach: #fab387;--ctp-yellow: #f9e2af;--ctp-green: #a6e3a1;--ctp-teal: #94e2d5;--ctp-sky: #89dceb;--ctp-sapphire: #74c7ec;--ctp-blue: #89b4fa;--ctp-lavender: #b4befe;--ctp-text: #cdd6f4;--ctp-overlay1: #7f849c;}</style>
    <rect width="30" height="30" x="1" y="1" fill="none" stroke="var(--ctp-mauve)" stroke-linecap="round" stroke-linejoin="round" stroke-width="2" paint-order="fill markers stroke" rx="5.163" ry="5.112"/>
    <path fill="none" stroke="var(--ctp-mauve)" stroke-linecap="round" stroke-linejoin="round" stroke-width="2" d="M10.785 23H21.12M10.879 27h10.336" paint-order="fill markers stroke"/>
    <path fill="none" stroke="var(--ctp-mauve)" stroke-linecap="round" stroke-linejoin="round" stroke-width="2.19488" d="M22.075 18.491s-.579.08-.87.089a2.69 2.69 0 0 1-.413-.02c-.125-.015-.252-.028-.368-.075a.844.844 0 0 1-.33-.209.778.778 0 0 1-.147-.329c-.05-.203-.031-.417-.038-.626-.035-1.171 0-2.344 0-3.516 0-1.172-.011-2.344 0-3.517.004-.442.028-.884.026-1.326-.002-.2.004-.4-.018-.6a3.931 3.931 0 0 0-.126-.634 3.328 3.328 0 0 0-.243-.644 3.135 3.135 0 0 0-.476-.68c-.136-.146-.303-.26-.467-.375a4.293 4.293 0 0 0-.682-.42 3.686 3.686 0 0 0-.746-.233 6.431 6.431 0 0 0-.916-.117 11.873 11.873 0 0 0-1.228-.018 6.066 6.066 0 0 0-.772.063c-.271.044-.537.118-.8.197a5.595 5.595 0 0 0-.763.268 3.417 3.417 0 0 0-1.015.725c-.185.186-.36.385-.512.599a4.682 4.682 0 0 0-.323.554c-.079.151-.135.27-.214.463" paint-order="fill markers stroke"/>
    <path fill="none" stroke="var(--ctp-mauve)" stroke-linecap="round" stroke-linejoin="round" stroke-width="2.19488" d="M19.674 10.744s-.717.346-1.096.466c-.432.136-.88.226-1.329.286-1.206.161-2.439.04-3.646.196-.382.05-.762.125-1.132.233-.302.089-.599.199-.88.34-.24.12-.481.251-.683.43a2.712 2.712 0 0 0-.538.661 2.834 2.834 0 0 0-.288.733c-.096.38-.127.773-.143 1.163-.014.322-.027.65.035.966a2.7 2.7 0 0 0 .252.68c.128.254.285.496.467.715.132.16.283.306.449.43.182.136.385.246.593.34.184.083.381.135.575.196.243.077.485.168.736.215.272.05.55.052.826.071.216.016.431.043.647.036a5.33 5.33 0 0 0 .754-.09c.206-.035.41-.085.611-.142.213-.061.425-.129.629-.215.229-.097.449-.216.664-.34.21-.12.416-.25.611-.393.144-.105.275-.228.413-.34.244-.199.514-.369.737-.59.337-.336.898-1.11.898-1.11" paint-order="fill markers stroke"/>
</svg>
