<svg xmlns="http://www.w3.org/2000/svg" width="32" height="32">
<style>:root {--ctp-rosewater: #f5e0dc;--ctp-flamingo: #f2cdcd;--ctp-pink: #f5c2e7;--ctp-mauve: #cba6f7;--ctp-red: #f38ba8;--ctp-maroon: #eba0ac;--ctp-peach: #fab387;--ctp-yellow: #f9e2af;--ctp-green: #a6e3a1;--ctp-teal: #94e2d5;--ctp-sky: #89dceb;--ctp-sapphire: #74c7ec;--ctp-blue: #89b4fa;--ctp-lavender: #b4befe;--ctp-text: #cdd6f4;--ctp-overlay1: #7f849c;}</style>
    <path fill="none" stroke="var(--ctp-text)" stroke-linecap="round" stroke-linejoin="round" stroke-width="2" d="M17.016 6.296a.721.721 0 0 1-.722-.719c0-3.237 1.29-4.51 4.63-4.51.4 0 .72.325.72.722 0 3.27-1.844 4.504-4.628 4.505zM27.245 22.22a.718.718 0 0 1 .21.898c-2.535 5.078-4.56 7.606-6.41 7.606-.86 0-1.705-.277-2.53-.82a3.748 3.748 0 0 0-3.986-.086c-.997.597-1.95.906-2.852.906-2.722 0-7.209-7.984-7.209-12.582 0-4.905 2.573-8.65 6.487-8.65 1.841 0 3.431.274 4.767.82a2.154 2.154 0 0 0 1.758-.045c1.084-.522 2.512-.774 4.287-.774 2.167 0 4.052 1.079 5.62 3.172.24.318.176.77-.142 1.01-1.752 1.312-2.596 2.788-2.596 4.467 0 1.68.844 2.763 2.596 4.078z"/>
</svg>
