<svg xmlns="http://www.w3.org/2000/svg" width="32" height="32">
<style>:root {--ctp-rosewater: #f5e0dc;--ctp-flamingo: #f2cdcd;--ctp-pink: #f5c2e7;--ctp-mauve: #cba6f7;--ctp-red: #f38ba8;--ctp-maroon: #eba0ac;--ctp-peach: #fab387;--ctp-yellow: #f9e2af;--ctp-green: #a6e3a1;--ctp-teal: #94e2d5;--ctp-sky: #89dceb;--ctp-sapphire: #74c7ec;--ctp-blue: #89b4fa;--ctp-lavender: #b4befe;--ctp-text: #cdd6f4;--ctp-overlay1: #7f849c;}</style>
    <path fill="none" stroke="var(--ctp-text)" stroke-linecap="round" stroke-linejoin="round" stroke-width="2" d="m16.831 16.297-.215-.727-.86-2.907-1.72-5.815c-.128-.428-.735-.427-.86.003L9.775 18.474a22 22 0 0 0-6.349 2.144L8.738 3.25c.243-.794.364-1.191.602-1.486.21-.26.482-.46.792-.585.35-.14.765-.14 1.595-.14h3.795c.83 0 1.246 0 1.597.14.309.125.58.327.79.585h0c.238.296.359.693.601 1.488l2.644 8.683.66 2.17.166.543"/>
    <path fill="none" stroke="var(--ctp-mauve)" stroke-linecap="round" stroke-linejoin="round" stroke-width="2" d="M12.118 23.437a8.394 8.394 0 0 1-1.499-.376c-.89-.32-1.543-.768-1.816-1.283-.195.59-.24 1.266-.24 1.697 0 0-.128 2.118 1.345 3.592 0-.765.62-1.386 1.386-1.386 1.31 0 1.31 1.144 1.308 2.073v.083c0 1.41.86 2.616 2.086 3.126"/>
    <path fill="none" stroke="var(--ctp-overlay1)" stroke-linecap="round" stroke-linejoin="round" stroke-width="2" d="M24.39 24.269a2.51 2.51 0 0 1-2.51 2.51 2.51 2.51 0 0 1-2.51-2.51 2.51 2.51 0 0 1 2.51-2.51 2.51 2.51 0 0 1 2.51 2.51zm-2.51-6.693c-.892 0-1.21 1.364-2.091 1.673-.882.31-2.238-.69-2.928 0s.31 2.047 0 2.928c-.31.882-1.673 1.199-1.673 2.092 0 .892 1.364 1.21 1.673 2.091.31.882-.69 2.238 0 2.928s2.047-.307 2.928.002c.881.31 1.199 1.672 2.091 1.671.893 0 1.21-1.364 2.092-1.673.882-.31 2.237.69 2.928 0 .69-.69-.307-2.046.002-2.928.31-.881 1.671-1.199 1.67-2.091 0-.893-1.363-1.21-1.672-2.092-.31-.881.69-2.238 0-2.928s-2.047.31-2.928 0c-.882-.309-1.199-1.673-2.092-1.673z" paint-order="fill markers stroke"/>
</svg>
