<svg xmlns="http://www.w3.org/2000/svg" width="32" height="32">
<style>:root {--ctp-rosewater: #f5e0dc;--ctp-flamingo: #f2cdcd;--ctp-pink: #f5c2e7;--ctp-mauve: #cba6f7;--ctp-red: #f38ba8;--ctp-maroon: #eba0ac;--ctp-peach: #fab387;--ctp-yellow: #f9e2af;--ctp-green: #a6e3a1;--ctp-teal: #94e2d5;--ctp-sky: #89dceb;--ctp-sapphire: #74c7ec;--ctp-blue: #89b4fa;--ctp-lavender: #b4befe;--ctp-text: #cdd6f4;--ctp-overlay1: #7f849c;}</style>
    <path fill="none" stroke="var(--ctp-text)" stroke-linecap="round" stroke-linejoin="round" stroke-width="2" d="M20.298 1.765c.237.295.358.692.6 1.487l5.288 17.366a22.005 22.005 0 0 0-6.321-2.14l-3.441-11.63c-.128-.428-.735-.426-.86.003l-3.401 11.623a22 22 0 0 0-6.349 2.144L11.127 3.25c.242-.794.363-1.191.601-1.485.21-.26.482-.462.792-.586.351-.14.765-.14 1.595-.14h3.795c.83 0 1.247 0 1.598.141.308.125.58.326.789.585z"/>
    <path fill="none" stroke="var(--ctp-mauve)" stroke-linecap="round" stroke-linejoin="round" stroke-width="2" d="M20.873 22.32c-.871.746-2.61 1.253-4.614 1.253-2.46 0-4.52-.765-5.068-1.795-.195.59-.24 1.266-.24 1.697 0 0-.128 2.118 1.345 3.593 0-.765.621-1.386 1.386-1.386 1.311 0 1.31 1.143 1.309 2.072v.083c0 1.41.86 2.616 2.085 3.126a2.841 2.841 0 0 1-.285-1.246c0-1.343.789-1.843 1.706-2.424.729-.464 1.54-.977 2.098-2.01a3.788 3.788 0 0 0 .278-2.963z"/>
</svg>
