<svg xmlns="http://www.w3.org/2000/svg" width="32" height="32">
<style>:root {--ctp-rosewater: #f5e0dc;--ctp-flamingo: #f2cdcd;--ctp-pink: #f5c2e7;--ctp-mauve: #cba6f7;--ctp-red: #f38ba8;--ctp-maroon: #eba0ac;--ctp-peach: #fab387;--ctp-yellow: #f9e2af;--ctp-green: #a6e3a1;--ctp-teal: #94e2d5;--ctp-sky: #89dceb;--ctp-sapphire: #74c7ec;--ctp-blue: #89b4fa;--ctp-lavender: #b4befe;--ctp-text: #cdd6f4;--ctp-overlay1: #7f849c;}</style>
    <path fill="none" stroke="var(--ctp-yellow)" stroke-linecap="round" stroke-linejoin="round" stroke-width="2" d="M6.784 6.86c2.506-1.543 5.284-3.5 8.26-4.472 2.63-.859 5.512-1.67 8.223-1.12 1.355.276 2.868.928 3.567 2.122.65 1.109.679 2.71.096 3.855-2.195 4.317-11.95 8.263-11.95 8.263m2.728-13.585L4.634 30.915s13.952-4.89 18.7-10.161c.987-1.096 2.164-2.688 1.697-4.087-.404-1.21-2.038-1.73-3.295-1.943-3.554-.606-10.61 2.1-10.61 2.1" paint-order="fill markers stroke"/>
</svg>
