<svg xmlns="http://www.w3.org/2000/svg" width="32" height="32">
<style>:root {--ctp-rosewater: #f5e0dc;--ctp-flamingo: #f2cdcd;--ctp-pink: #f5c2e7;--ctp-mauve: #cba6f7;--ctp-red: #f38ba8;--ctp-maroon: #eba0ac;--ctp-peach: #fab387;--ctp-yellow: #f9e2af;--ctp-green: #a6e3a1;--ctp-teal: #94e2d5;--ctp-sky: #89dceb;--ctp-sapphire: #74c7ec;--ctp-blue: #89b4fa;--ctp-lavender: #b4befe;--ctp-text: #cdd6f4;--ctp-overlay1: #7f849c;}</style>
    <path fill="none" stroke="var(--ctp-green)" stroke-linecap="round" stroke-linejoin="round" stroke-width="2" d="M7.91 25.444v1.062m.266-11.343-.027.983m2.1.637s-1.409-.317-2.206-.319c-.647 0-1.379.125-1.86.558-.477.43-.88 1.152-.743 1.78.166.768.507 1.091.956 1.461.502.414 1.174.59 1.808.736.694.16 1.446.345 1.964.832.318.298.577.733.585 1.169.01.574-.294 1.18-.717 1.567-.43.393-1.074.48-1.648.585-.496.09-1.01.07-1.514.026-.413-.036-1.222-.239-1.222-.239" paint-order="fill markers stroke"/>
    <path fill="none" stroke="var(--ctp-green)" stroke-width="2" d="M4.064 30.827c-1.421 0-3.017-1.59-3.017-3.011V9.75c0-1.42 1.591-3.01 3.01-3.01h18.065c1.419 0 3.01 1.59 3.01 3.01v18.065c0 1.42-1.59 3.01-3.01 3.01z"/>
    <path fill="none" stroke="var(--ctp-green)" stroke-width="2" d="M2.053 7.745 6.91 2.841c.779-.786 1.98-1.668 3.087-1.668h17.946c1.406 0 3.01 1.552 3.01 2.958v16.38c0 1.331-.61 2.73-1.521 3.701l-5.257 5.605"/>
</svg>
