<svg xmlns="http://www.w3.org/2000/svg" width="32" height="32">
<style>:root {--ctp-rosewater: #f5e0dc;--ctp-flamingo: #f2cdcd;--ctp-pink: #f5c2e7;--ctp-mauve: #cba6f7;--ctp-red: #f38ba8;--ctp-maroon: #eba0ac;--ctp-peach: #fab387;--ctp-yellow: #f9e2af;--ctp-green: #a6e3a1;--ctp-teal: #94e2d5;--ctp-sky: #89dceb;--ctp-sapphire: #74c7ec;--ctp-blue: #89b4fa;--ctp-lavender: #b4befe;--ctp-text: #cdd6f4;--ctp-overlay1: #7f849c;}</style>
    <path fill="none" stroke="var(--ctp-mauve)" stroke-width="2" d="M4.06 30.83c-1.42 0-3.017-1.59-3.017-3.01V9.75c0-1.42 1.591-3.012 3.011-3.012h18.07c1.419 0 3.011 1.592 3.011 3.012v18.07c0 1.419-1.592 3.01-3.011 3.01z"/>
    <path fill="none" stroke="var(--ctp-mauve)" stroke-width="2" d="m2.05 7.743 4.857-4.905c.78-.787 1.98-1.669 3.088-1.669h17.951c1.407 0 3.011 1.552 3.011 2.959v16.385c0 1.33-.61 2.73-1.522 3.702l-5.258 5.606"/>
    <path fill="none" stroke="var(--ctp-mauve)" stroke-linecap="round" stroke-linejoin="round" stroke-width="2" d="m5.221 18.22 5.923 3.486-5.923 3.488" paint-order="fill markers stroke"/>
</svg>
