<svg xmlns="http://www.w3.org/2000/svg" width="32" height="32">
<style>:root {--ctp-rosewater: #f5e0dc;--ctp-flamingo: #f2cdcd;--ctp-pink: #f5c2e7;--ctp-mauve: #cba6f7;--ctp-red: #f38ba8;--ctp-maroon: #eba0ac;--ctp-peach: #fab387;--ctp-yellow: #f9e2af;--ctp-green: #a6e3a1;--ctp-teal: #94e2d5;--ctp-sky: #89dceb;--ctp-sapphire: #74c7ec;--ctp-blue: #89b4fa;--ctp-lavender: #b4befe;--ctp-text: #cdd6f4;--ctp-overlay1: #7f849c;}</style>
    <path fill="none" stroke="var(--ctp-yellow)" stroke-linecap="round" stroke-linejoin="round" stroke-width="2" d="M30.836 14.818c-.644-1.276-2.426-1.454-3.335-.429-2.441-1.87-4.808-5.799-3.39-10.475-2.504-.295-5.222.47-7.59 1.86-.612-1.277-.938-2.642-.938-4.526-2.238 1.203-4.038 3.434-5.177 5.955-1.271-.699-2.341-1.636-3.443-3.21-1.13 2.242-1.333 5.064-.842 7.754-1.43.152-2.838-.006-4.63-.658.367 2.514 1.85 4.973 3.832 6.909-1.088.954-2.335 1.636-4.19 2.133 1.725 1.83 4.311 2.988 7.012 3.445-.346 1.387-.976 2.648-2.196 4.101 2.475.51 5.27-.03 7.75-1.213.515 1.337.722 2.734.559 4.626 3.519-1.516 6.958-5.996 7.545-11.271 2.925-.489 4.738-1.475 6.21-2.255 2.06.977 3.617-1.129 2.823-2.746zm-8.993 4.425c-.007-1.387-.825-2.919-1.038-4.329-.139-.917-.347-1.848-.193-3.507.005-1.5 1.405-4.795 2.661-6.846m4.175 9.868c-1.078 1.476.032 2.98.563 3.143"/>
</svg>
