<svg xmlns="http://www.w3.org/2000/svg" width="32" height="32">
<style>:root {--ctp-rosewater: #f5e0dc;--ctp-flamingo: #f2cdcd;--ctp-pink: #f5c2e7;--ctp-mauve: #cba6f7;--ctp-red: #f38ba8;--ctp-maroon: #eba0ac;--ctp-peach: #fab387;--ctp-yellow: #f9e2af;--ctp-green: #a6e3a1;--ctp-teal: #94e2d5;--ctp-sky: #89dceb;--ctp-sapphire: #74c7ec;--ctp-blue: #89b4fa;--ctp-lavender: #b4befe;--ctp-text: #cdd6f4;--ctp-overlay1: #7f849c;}</style>
    <path fill="none" stroke="var(--ctp-green)" stroke-linecap="round" stroke-linejoin="round" stroke-width="2" d="M14.544 25.01h7.915a.877.877 0 0 0 .877-.877v-8.71a.877.877 0 0 0-.877-.877H9.563a.877.877 0 0 0-.877.877v3.831" clip-rule="evenodd"/>
    <path fill="none" stroke="var(--ctp-green)" stroke-linecap="round" stroke-linejoin="round" stroke-width="2" d="M11.825 14.546V10.36c0-2.296 1.89-4.186 4.186-4.186 2.296 0 4.185 1.89 4.185 4.186v4.186" clip-rule="evenodd"/>
    <path fill="none" stroke="var(--ctp-blue)" stroke-linecap="round" stroke-linejoin="round" stroke-width="2" d="M29.919 10.86a14.899 14.899 0 0 1-4.014 16.208 14.899 14.899 0 0 1-16.538 2.303" paint-order="fill markers stroke"/>
    <path fill="none" stroke="var(--ctp-blue)" stroke-linecap="round" stroke-linejoin="round" stroke-width="2" d="M3.835 24.692A14.899 14.899 0 0 1 6.803 4.225a14.899 14.899 0 0 1 20.562 2.218" paint-order="fill markers stroke"/>
    <circle cx="28.864" cy="8.445" r="2.097" fill="none" stroke="var(--ctp-blue)" stroke-linecap="round" stroke-linejoin="round" stroke-width="2" paint-order="fill markers stroke"/>
    <circle cx="7.57" cy="25.971" r="3.609" fill="none" stroke="var(--ctp-blue)" stroke-linecap="round" stroke-linejoin="round" stroke-width="2" paint-order="fill markers stroke"/>
    <path fill="none" stroke="var(--ctp-blue)" stroke-linecap="round" stroke-linejoin="round" stroke-width="2" d="m10.49 23.639 4.597-3.756M27.12 9.854 24.5 11.95" paint-order="fill markers stroke"/>
</svg>
