<svg xmlns="http://www.w3.org/2000/svg" width="32" height="32">
<style>:root {--ctp-rosewater: #f5e0dc;--ctp-flamingo: #f2cdcd;--ctp-pink: #f5c2e7;--ctp-mauve: #cba6f7;--ctp-red: #f38ba8;--ctp-maroon: #eba0ac;--ctp-peach: #fab387;--ctp-yellow: #f9e2af;--ctp-green: #a6e3a1;--ctp-teal: #94e2d5;--ctp-sky: #89dceb;--ctp-sapphire: #74c7ec;--ctp-blue: #89b4fa;--ctp-lavender: #b4befe;--ctp-text: #cdd6f4;--ctp-overlay1: #7f849c;}</style>
    <path fill="none" stroke="var(--ctp-blue)" stroke-linecap="round" stroke-linejoin="round" stroke-width="2" d="M30.648 17.88c.351.347.336.535-.008.867-1.175 1.14-2.33 2.31-3.487 3.473-.198.199-.341.352-.622.068q-5.222-5.264-10.462-10.506-3.195-3.168-6.393-6.333c-.205-.202-.182-.339.012-.534q1.863-1.845 3.708-3.71c.228-.232.368-.192.576.018q2.273 2.304 4.564 4.596c.413.4.825.803 1.242 1.198.166.158.296.376.565.386q3.094-3.087 6.184-6.18c.23-.23.376-.262.624-.01a200.876 200.876 0 0 0 3.588 3.553c.315.303.283.466-.01.755-1.937 1.91-3.842 3.847-5.79 5.75-.4.39-.355.581.017.946 1.91 1.874 3.783 3.788 5.692 5.664zm-14.723 2.345a.666.666 0 0 0-.072-.107Q10.679 14.942 5.508 9.762c-.263-.263-.416-.258-.673 0a195.97 195.97 0 0 1-3.527 3.527c-.34.327-.295.503.016.81 1.906 1.881 3.78 3.793 5.692 5.665.387.38.374.587-.008.962-1.924 1.892-3.813 3.819-5.728 5.721-.28.278-.354.445-.025.765a154.487 154.487 0 0 1 3.515 3.536c.278.289.428.285.709 0q1.969-2.012 3.98-3.985a29.882 29.882 0 0 1 2.32-2.245l1.679 1.672q2.28 2.287 4.555 4.58c.214.213.371.22.588 0q1.843-1.859 3.702-3.7c.198-.195.2-.332 0-.534q-3.195-3.146-6.378-6.311Z"/>
</svg>
