<svg xmlns="http://www.w3.org/2000/svg" width="32" height="32">
<style>:root {--ctp-rosewater: #f5e0dc;--ctp-flamingo: #f2cdcd;--ctp-pink: #f5c2e7;--ctp-mauve: #cba6f7;--ctp-red: #f38ba8;--ctp-maroon: #eba0ac;--ctp-peach: #fab387;--ctp-yellow: #f9e2af;--ctp-green: #a6e3a1;--ctp-teal: #94e2d5;--ctp-sky: #89dceb;--ctp-sapphire: #74c7ec;--ctp-blue: #89b4fa;--ctp-lavender: #b4befe;--ctp-text: #cdd6f4;--ctp-overlay1: #7f849c;}</style>
    <path fill="none" stroke="var(--ctp-peach)" stroke-linecap="round" stroke-linejoin="round" stroke-width="2" d="M7.77 23.61v-7.893l6.765 3.383v7.892z"/>
    <path fill="none" stroke="var(--ctp-peach)" stroke-linecap="round" stroke-linejoin="round" stroke-width="2" d="M1.014 20.235v-7.892l6.765 3.382v7.893z"/>
    <path fill="none" stroke="var(--ctp-peach)" stroke-linecap="round" stroke-linejoin="round" stroke-width="2" d="M7.77 15.725V7.833l6.765 3.382v7.893z"/>
    <path fill="none" stroke="var(--ctp-peach)" stroke-linecap="round" stroke-linejoin="round" stroke-width="2" d="M21.3 16.704v-.987L14.536 19.1v7.892l2.537-1.268"/>
    <path fill="none" stroke="var(--ctp-peach)" stroke-linecap="round" stroke-linejoin="round" stroke-width="2" d="M28.084 14.784v-2.82l-6.765 3.76"/>
    <path fill="none" stroke="var(--ctp-peach)" stroke-linecap="round" stroke-linejoin="round" stroke-width="2" d="M21.3 15.725V7.833l-6.765 3.382v7.893zM28.084 11.952V4.436L21.32 8.194v7.517zM14.535 11.162 7.77 7.779l6.765-3.382 6.766 3.382ZM21.323 7.768l-6.765-3.383 6.765-3.382 6.765 3.382ZM7.779 15.734 1.014 12.35 7.779 8.97v4.51z"/>
    <path fill="none" stroke="var(--ctp-overlay1)" stroke-width="2" d="M22.55 23.499v-2.812a2.812 2.812 0 0 1 5.624 0v2.812m-7.498 0h9.373a.937.937 0 0 1 .937.937v5.624a.937.937 0 0 1-.937.937h-9.373a.937.937 0 0 1-.938-.937v-5.624a.937.937 0 0 1 .938-.937z"/>
</svg>
