<svg xmlns="http://www.w3.org/2000/svg" width="32" height="32">
<style>:root {--ctp-rosewater: #f5e0dc;--ctp-flamingo: #f2cdcd;--ctp-pink: #f5c2e7;--ctp-mauve: #cba6f7;--ctp-red: #f38ba8;--ctp-maroon: #eba0ac;--ctp-peach: #fab387;--ctp-yellow: #f9e2af;--ctp-green: #a6e3a1;--ctp-teal: #94e2d5;--ctp-sky: #89dceb;--ctp-sapphire: #74c7ec;--ctp-blue: #89b4fa;--ctp-lavender: #b4befe;--ctp-text: #cdd6f4;--ctp-overlay1: #7f849c;}</style>
    <path fill="none" stroke="var(--ctp-peach)" stroke-linecap="round" stroke-linejoin="round" stroke-width="2" d="M8.506 26.623v-8.722l7.477 3.738v8.723z"/>
    <path fill="none" stroke="var(--ctp-peach)" stroke-linecap="round" stroke-linejoin="round" stroke-width="2" d="M1.039 22.894v-8.723l7.476 3.739v8.723z"/>
    <path fill="none" stroke="var(--ctp-peach)" stroke-linecap="round" stroke-linejoin="round" stroke-width="2" d="M8.506 17.91V9.187l7.477 3.738v8.723zM23.46 26.623v-8.722l-7.477 3.738v8.723zM30.957 22.061v-8.307l-7.477 4.153v8.308z"/>
    <path fill="none" stroke="var(--ctp-peach)" stroke-linecap="round" stroke-linejoin="round" stroke-width="2" d="M23.46 17.91V9.187l-7.477 3.738v8.723zM30.957 13.74V5.432L23.48 9.586v8.308zM15.983 12.866 8.506 9.128l7.477-3.739 7.477 3.739ZM23.485 9.115l-7.477-3.738 7.477-3.739 7.477 3.739zM8.515 17.919 1.04 14.181l7.476-3.739v4.985z"/>
</svg>
