<svg xmlns="http://www.w3.org/2000/svg" width="32" height="32">
<style>:root {--ctp-rosewater: #f5e0dc;--ctp-flamingo: #f2cdcd;--ctp-pink: #f5c2e7;--ctp-mauve: #cba6f7;--ctp-red: #f38ba8;--ctp-maroon: #eba0ac;--ctp-peach: #fab387;--ctp-yellow: #f9e2af;--ctp-green: #a6e3a1;--ctp-teal: #94e2d5;--ctp-sky: #89dceb;--ctp-sapphire: #74c7ec;--ctp-blue: #89b4fa;--ctp-lavender: #b4befe;--ctp-text: #cdd6f4;--ctp-overlay1: #7f849c;}</style>
    <path fill="none" stroke="var(--ctp-red)" stroke-linecap="round" stroke-linejoin="round" stroke-width="2" d="M17.598 1.696a2.26 2.26 0 0 0-3.196 0l-2.146 2.147H9.221a2.26 2.26 0 0 0-2.26 2.26v3.034l-2.146 2.147a2.26 2.26 0 0 0 0 3.195l2.146 2.147v3.035a2.26 2.26 0 0 0 2.26 2.26h2.26v9.038L16 26.44l4.52 4.52V21.92h2.26a2.26 2.26 0 0 0 2.259-2.26v-3.034l2.146-2.147a2.26 2.26 0 0 0 0-3.195l-2.146-2.147V6.102a2.26 2.26 0 0 0-2.26-2.26h-3.035Z" clip-rule="evenodd"/>
    <path fill="none" stroke="var(--ctp-peach)" stroke-linecap="round" stroke-linejoin="round" stroke-width="2" d="M16 17.353a4.52 4.52 0 1 0 0-9.04 4.52 4.52 0 0 0 0 9.04z" clip-rule="evenodd"/>
</svg>
