<svg xmlns="http://www.w3.org/2000/svg" width="32" height="32">
<style>:root {--ctp-rosewater: #f5e0dc;--ctp-flamingo: #f2cdcd;--ctp-pink: #f5c2e7;--ctp-mauve: #cba6f7;--ctp-red: #f38ba8;--ctp-maroon: #eba0ac;--ctp-peach: #fab387;--ctp-yellow: #f9e2af;--ctp-green: #a6e3a1;--ctp-teal: #94e2d5;--ctp-sky: #89dceb;--ctp-sapphire: #74c7ec;--ctp-blue: #89b4fa;--ctp-lavender: #b4befe;--ctp-text: #cdd6f4;--ctp-overlay1: #7f849c;}</style>
    <path fill="none" stroke="var(--ctp-green)" stroke-linecap="round" stroke-linejoin="round" stroke-width="2" d="M20.234 23.176a8.332 8.332 0 0 1-8.427.024 8.332 8.332 0 0 1-4.138-7.341 8.332 8.332 0 0 1 4.385-7.197"/>
    <path fill="none" stroke="var(--ctp-blue)" stroke-linecap="round" stroke-linejoin="round" stroke-width="2" d="M12.008 8.686a8.332 8.332 0 0 1 11.187 3.112 8.332 8.332 0 0 1-2.787 11.272"/>
    <path fill="none" stroke="var(--ctp-green)" stroke-linecap="round" stroke-linejoin="round" stroke-width="2" d="M30.21 20.665a14.955 14.955 0 0 1-18.823 9.561 14.955 14.955 0 0 1-9.63-18.787"/>
    <path fill="none" stroke="var(--ctp-blue)" stroke-linecap="round" stroke-linejoin="round" stroke-width="2" d="M1.889 11.046a14.955 14.955 0 0 1 18.77-9.257 14.955 14.955 0 0 1 9.646 18.573"/>
    <path fill="none" stroke="var(--ctp-text)" stroke-linecap="round" stroke-linejoin="round" stroke-width="2" d="M15.67 15.46s-3.5 5.421-3.121 8.121"/>
    <path fill="none" stroke="var(--ctp-text)" stroke-linecap="round" stroke-linejoin="round" stroke-width="2" d="M1.855 11.178c1.068-2.47 4.281-3.394 6.982-3.446 7.6-.147 6.034 13.059 11.954 15.567 2.79 1.183 7.953-.142 9.438-2.687"/>
</svg>
