<svg xmlns="http://www.w3.org/2000/svg" width="32" height="32">
<style>:root {--ctp-rosewater: #f5e0dc;--ctp-flamingo: #f2cdcd;--ctp-pink: #f5c2e7;--ctp-mauve: #cba6f7;--ctp-red: #f38ba8;--ctp-maroon: #eba0ac;--ctp-peach: #fab387;--ctp-yellow: #f9e2af;--ctp-green: #a6e3a1;--ctp-teal: #94e2d5;--ctp-sky: #89dceb;--ctp-sapphire: #74c7ec;--ctp-blue: #89b4fa;--ctp-lavender: #b4befe;--ctp-text: #cdd6f4;--ctp-overlay1: #7f849c;}</style>
    <path fill="none" stroke="var(--ctp-red)" stroke-linecap="round" stroke-linejoin="round" stroke-width="2" d="M28.476 16.956 16.014 29.3 3.55 16.956a8.308 8.308 0 1 1 12.463-10.91 8.308 8.308 0 1 1 12.462 10.92"/>
    <path fill="none" stroke="var(--ctp-red)" stroke-linecap="round" stroke-linejoin="round" stroke-width="2" d="m16.014 6.036-5.472 5.471a1.662 1.662 0 0 0 0 2.35l.902.902a2.939 2.939 0 0 0 4.154 0l1.662-1.661a5.287 5.287 0 0 1 7.478 0l3.738 3.739m-11.631 4.985 3.323 3.323m.83-7.478 3.324 3.324"/>
</svg>
