<svg xmlns="http://www.w3.org/2000/svg" width="32" height="32">
<style>:root {--ctp-rosewater: #f5e0dc;--ctp-flamingo: #f2cdcd;--ctp-pink: #f5c2e7;--ctp-mauve: #cba6f7;--ctp-red: #f38ba8;--ctp-maroon: #eba0ac;--ctp-peach: #fab387;--ctp-yellow: #f9e2af;--ctp-green: #a6e3a1;--ctp-teal: #94e2d5;--ctp-sky: #89dceb;--ctp-sapphire: #74c7ec;--ctp-blue: #89b4fa;--ctp-lavender: #b4befe;--ctp-text: #cdd6f4;--ctp-overlay1: #7f849c;}</style>
    <path fill="none" stroke="var(--ctp-peach)" stroke-linecap="round" stroke-linejoin="round" stroke-width="2" d="M3.048 11.832c7.842 3.932 21.423 3.665 27.91 0-1.13 3.724-3.859 12.018-6.634 14.723-2.776 2.705-3.968 2.641-6.553 2.75-2.585.11-4.935.161-8.009-2.588-3.073-2.75-6.194-9.276-6.714-14.885Z"/>
    <path fill="none" stroke="var(--ctp-peach)" stroke-linecap="round" stroke-linejoin="round" stroke-width="2" d="M3.01 7.679c7.85 3.935 21.443 3.668 27.935 0m-18.419-4.69c-1.73-.831-3.87.061-3.972 1.382-.104 1.334 2.431 1.454 3.767 1.386 1.348-.069 2.451-1.134 3.638-1.775 1.452-.785 2.902-1.137 4.374-.91 1.194.185 3.308.416 3.161 1.775-.189 1.75-4.291 1.9-5.165 1.177M3.5 15.69C-.477 19.39.052 24.87 7.562 24.7"/>
</svg>
