<svg xmlns="http://www.w3.org/2000/svg" width="32" height="32">
<style>:root {--ctp-rosewater: #f5e0dc;--ctp-flamingo: #f2cdcd;--ctp-pink: #f5c2e7;--ctp-mauve: #cba6f7;--ctp-red: #f38ba8;--ctp-maroon: #eba0ac;--ctp-peach: #fab387;--ctp-yellow: #f9e2af;--ctp-green: #a6e3a1;--ctp-teal: #94e2d5;--ctp-sky: #89dceb;--ctp-sapphire: #74c7ec;--ctp-blue: #89b4fa;--ctp-lavender: #b4befe;--ctp-text: #cdd6f4;--ctp-overlay1: #7f849c;}</style>
    <path fill="none" stroke="var(--ctp-green)" stroke-linecap="round" stroke-linejoin="round" stroke-width="2" d="m17.227 1.376 10.825 6.25a2.451 2.451 0 0 1 1.226 2.124v12.5a2.452 2.452 0 0 1-1.226 2.124l-10.825 6.25a2.452 2.452 0 0 1-2.454 0l-10.825-6.25a2.451 2.451 0 0 1-1.226-2.124V9.75c0-.876.467-1.686 1.226-2.124l10.825-6.25a2.452 2.452 0 0 1 2.454 0z"/>
    <path fill="none" stroke="var(--ctp-text)" stroke-linecap="round" stroke-linejoin="round" stroke-width="2" d="M20.772 22.386a7.973 7.973 0 0 1-10.68-1.033 7.973 7.973 0 0 1 .022-10.73 7.973 7.973 0 0 1 10.685-.99"/>
    <path fill="none" stroke="var(--ctp-text)" stroke-linecap="round" stroke-linejoin="round" stroke-width="2" d="M16.797 17.635h6.065m-5.757-3.242h6.064m-1.341-1.76-.81 6.735m-2.18-6.736-.811 6.736"/>
</svg>
