<svg xmlns="http://www.w3.org/2000/svg" width="32" height="32">
<style>:root {--ctp-rosewater: #f5e0dc;--ctp-flamingo: #f2cdcd;--ctp-pink: #f5c2e7;--ctp-mauve: #cba6f7;--ctp-red: #f38ba8;--ctp-maroon: #eba0ac;--ctp-peach: #fab387;--ctp-yellow: #f9e2af;--ctp-green: #a6e3a1;--ctp-teal: #94e2d5;--ctp-sky: #89dceb;--ctp-sapphire: #74c7ec;--ctp-blue: #89b4fa;--ctp-lavender: #b4befe;--ctp-text: #cdd6f4;--ctp-overlay1: #7f849c;}</style>
    <path fill="none" stroke="var(--ctp-blue)" stroke-linecap="round" stroke-linejoin="round" stroke-width="2" d="M17.877 4.23h13.097L28.6 28.125l-9.495 2.849-9.495-2.849-.296-2.987-.074-.746"/>
    <path fill="none" stroke="var(--ctp-text)" stroke-linecap="round" stroke-linejoin="round" stroke-width="2" d="M18.392 9.265h7.834l-1.51 14.667-5.61 1.35-5.585-1.35-.331-3.687m3.036-4.09h8.383"/>
    <path fill="none" stroke="var(--ctp-red)" stroke-linecap="round" stroke-linejoin="round" stroke-width="2" d="M8.179 1.026a7.152 7.152 0 0 0-5.732 11.432l4.588 7.946c.027.052.053.103.086.15l.01.017.003-.001a1.284 1.284 0 0 0 2.024.079l.012.007.045-.08c.067-.09.127-.186.17-.292l4.494-7.786a7.152 7.152 0 0 0-5.7-11.472z"/>
    <circle cx="8.179" cy="8.415" r="3.066" fill="none" stroke="var(--ctp-red)" stroke-linecap="round" stroke-linejoin="round" stroke-width="2" paint-order="fill markers stroke"/>
</svg>
