<svg xmlns="http://www.w3.org/2000/svg" width="32" height="32">
<style>:root {--ctp-rosewater: #f5e0dc;--ctp-flamingo: #f2cdcd;--ctp-pink: #f5c2e7;--ctp-mauve: #cba6f7;--ctp-red: #f38ba8;--ctp-maroon: #eba0ac;--ctp-peach: #fab387;--ctp-yellow: #f9e2af;--ctp-green: #a6e3a1;--ctp-teal: #94e2d5;--ctp-sky: #89dceb;--ctp-sapphire: #74c7ec;--ctp-blue: #89b4fa;--ctp-lavender: #b4befe;--ctp-text: #cdd6f4;--ctp-overlay1: #7f849c;}</style>
    <path fill="none" stroke="var(--ctp-green)" stroke-linecap="round" stroke-linejoin="round" stroke-width="2" d="M29.29 14.351c-.016 9.158-7.431 16.59-16.59 16.607v-3.75l-.015-.016c-7.1-1.842-11.381-9.075-9.556-16.175a13.273 13.273 0 0 1 16.158-9.556c5.856 1.51 10.003 6.852 10.003 12.907Zm-15.76-4.96-.83-1.659m5.807 11.613.83 1.659m-8.295-4.148-1.66.83m4.978 1.66-.83 1.658M17.677 9.39l.83-1.659m4.147 9.124-1.659-.83m-9.953-3.317-1.66-.83"/>
</svg>
