<svg xmlns="http://www.w3.org/2000/svg" width="32" height="32">
<style>:root {--ctp-rosewater: #f5e0dc;--ctp-flamingo: #f2cdcd;--ctp-pink: #f5c2e7;--ctp-mauve: #cba6f7;--ctp-red: #f38ba8;--ctp-maroon: #eba0ac;--ctp-peach: #fab387;--ctp-yellow: #f9e2af;--ctp-green: #a6e3a1;--ctp-teal: #94e2d5;--ctp-sky: #89dceb;--ctp-sapphire: #74c7ec;--ctp-blue: #89b4fa;--ctp-lavender: #b4befe;--ctp-text: #cdd6f4;--ctp-overlay1: #7f849c;}</style>
    <path fill="none" stroke="var(--ctp-green)" stroke-linecap="round" stroke-linejoin="round" stroke-width="2" d="M15.312 18.44a4.704 4.667 0 0 1-5.22 2.208 4.704 4.667 0 0 1-3.564-4.38 4.704 4.667 0 0 1 3.275-4.596 4.704 4.667 0 0 1 5.35 1.873m6.605 7.428-4.181-9.297m-1.584 19.287c.846-.11 1.214-.17 1.685-.483.288-.244.563-.647.693-.996l7.382-17.808m-9.836 19.286A14.962 14.962 0 0 1 1.211 18.265 14.962 14.962 0 0 1 11.443 1.75 14.962 14.962 0 0 1 29.36 9.26a14.962 14.962 0 0 1-4.607 18.875" paint-order="fill markers stroke"/>
</svg>
