<svg xmlns="http://www.w3.org/2000/svg" width="32" height="32">
<style>:root {--ctp-rosewater: #f5e0dc;--ctp-flamingo: #f2cdcd;--ctp-pink: #f5c2e7;--ctp-mauve: #cba6f7;--ctp-red: #f38ba8;--ctp-maroon: #eba0ac;--ctp-peach: #fab387;--ctp-yellow: #f9e2af;--ctp-green: #a6e3a1;--ctp-teal: #94e2d5;--ctp-sky: #89dceb;--ctp-sapphire: #74c7ec;--ctp-blue: #89b4fa;--ctp-lavender: #b4befe;--ctp-text: #cdd6f4;--ctp-overlay1: #7f849c;}</style>
    <path fill="none" stroke="var(--ctp-text)" stroke-linecap="round" stroke-linejoin="round" stroke-width="2" d="M1.037 14.411c0 7.387 5.988 13.375 13.374 13.375a13.532 13.532 0 0 0 2.203-.18m11.103-11.827c.046-.45.07-.906.07-1.368 0-7.386-5.989-13.374-13.376-13.374-7.386 0-13.374 5.988-13.374 13.374"/>
    <path fill="none" stroke="var(--ctp-text)" stroke-linecap="round" stroke-linejoin="round" stroke-width="2" d="m16.596 27.545-2.185-8.675c-3.936-.131-7.43-2.414-7.43-5.202 0-2.872 3.327-5.201 7.43-5.201 4.104 0 5.945 1.486 7.43 4.458.019.036.275.859.77 2.469"/>
    <circle cx="15.755" cy="12.273" r=".706" fill="var(--ctp-text)" paint-order="fill markers stroke"/>
    <path fill="none" stroke="var(--ctp-overlay1)" stroke-width="2" d="M22.583 23.514V20.72a2.794 2.794 0 0 1 5.587 0v2.794m-7.45 0h9.312a.931.931 0 0 1 .931.931v5.587a.931.931 0 0 1-.93.931H20.72a.931.931 0 0 1-.93-.93v-5.588a.931.931 0 0 1 .93-.931z"/>
</svg>
